<?xml version="1.0" encoding="iso-8859-1"?>
<!-- Generator: Adobe Illustrator 19.0.0, SVG Export Plug-In . SVG Version: 6.00 Build 0)  -->
<svg version="1.1" id="Capa_1" xmlns="http://www.w3.org/2000/svg" xmlns:xlink="http://www.w3.org/1999/xlink" x="0px" y="0px"
	 viewBox="0 0 509.287 509.287" style="enable-background:new 0 0 509.287 509.287;" xml:space="preserve">
<path style="fill:#29B36F;" d="M2.034,223.449l198.697,36.281L247.862,0.339C121.049,3.391,17.293,99.687,2.034,223.449z"/>
<path style="fill:#DEDEDF;" d="M509.287,254.644C509.287,113.928,395.359,0,254.644,0c-2.374,0-4.408,0-6.781,0l-47.131,259.73
	l301.436,54.93C506.575,295.332,509.287,275.327,509.287,254.644z"/>
<path style="fill:#3EB9E3;" d="M2.034,223.449C0.678,233.621,0,244.132,0,254.644c0,140.715,113.928,254.644,254.644,254.644
	c120.032,0,220.397-83.073,247.523-194.628L2.034,223.449z"/>
<path style="fill:#36B4D6;" d="M409.939,394.681l16.954-93.584l-20.005-3.73l-16.954,93.584l-244.132-46.453l16.615-91.55
	l-20.005-3.73l-16.615,91.55L8.138,318.05c2.034,7.46,4.069,14.919,6.781,22.04l204.461,38.993l-16.275,89.176L86.803,445.881
	c11.868,10.511,24.752,20.005,38.654,28.143l168.858,32.212c15.936-2.374,31.534-6.442,46.453-11.868l-117.997-22.379l16.276-89.176
	l207.174,39.332c5.086-5.764,9.833-11.868,14.241-17.971L409.939,394.681z"/>
<path style="fill:#F1F3F7;" d="M238.707,51.2l129.187,24.752l-16.276,88.837l-129.187-24.413l-3.73,20.005l226.162,43.062
	l-17.971,97.653l20.005,3.73l17.632-97.314l41.367,7.799c-1.017-7.46-2.713-14.58-4.408-21.701l-129.865-25.091l16.276-89.176
	l62.05,11.868c-7.46-9.155-15.597-17.632-24.413-25.43L242.098,31.195L238.707,51.2z"/>
<path style="fill:#725AD2;" d="M219.719,245.828L264.477,0.339c-3.391,0-6.442-0.339-9.833-0.339c-2.374,0-4.408,0-6.781,0
	c-5.764,0-11.189,0.678-16.615,1.017l-43.401,239.046L4.747,206.834c-1.017,5.425-2.034,10.85-2.713,16.615
	c-0.678,5.425-1.356,11.189-1.356,16.954l496.742,90.532c1.695-5.425,3.391-10.85,4.408-16.275
	c1.356-5.425,2.374-10.85,3.391-16.615L219.719,245.828z"/>
<path style="fill:#F0582F;" d="M421.807,234.299c0,48.148-87.142,138.003-87.142,138.003s-86.803-90.193-86.803-138.003
	c0-48.148,38.993-87.142,87.142-87.142C382.813,147.158,421.807,186.151,421.807,234.299z"/>
<circle style="fill:#FBD303;" cx="335.004" cy="229.213" r="49.844"/>
<g>
</g>
<g>
</g>
<g>
</g>
<g>
</g>
<g>
</g>
<g>
</g>
<g>
</g>
<g>
</g>
<g>
</g>
<g>
</g>
<g>
</g>
<g>
</g>
<g>
</g>
<g>
</g>
<g>
</g>
</svg>
