<?xml version="1.0" encoding="utf-8"?>
<!-- Generator: Adobe Illustrator 24.0.0, SVG Export Plug-In . SVG Version: 6.00 Build 0)  -->
<svg version="1.1" id="Calque_1" xmlns="http://www.w3.org/2000/svg" xmlns:xlink="http://www.w3.org/1999/xlink" x="0px" y="0px"
	 viewBox="0 0 612 792" style="enable-background:new 0 0 612 792;" xml:space="preserve">
<style type="text/css">
	.st0{fill:#020202;}
	.st1{fill:#404040;}
	.st2{fill:#363636;}
	.st3{fill:#FEFEFE;}
	.st4{fill:#FDFDFD;}
	.st5{fill:#F5F5F5;}
	.st6{fill:#F9F9F9;}
	.st7{fill:#FAFAFA;}
	.st8{fill:#F8F8F8;}
	.st9{fill:#FCFCFC;}
	.st10{fill:#2D2D2D;}
	.st11{fill:#DFDFDF;}
	.st12{fill:#3D3D3D;}
	.st13{fill:#EAEAEA;}
	.st14{fill:#7D7D7D;}
	.st15{fill:#A1A1A1;}
	.st16{fill:#BEBEBE;}
	.st17{fill:#F4F4F9;}
	.st18{fill:#F6F6F9;}
	.st19{fill:#2C2DC6;}
	.st20{fill:#3B3BCC;}
</style>
<g>
	<path class="st0" d="M605.32,368.22c-0.21,0.36-0.37,0.97-0.65,1.03c-0.67,0.15-1.4,0.05-2.1,0.05c-40.62,0-81.23,0-121.85,0
		c-0.96,0-1.91,0-3.11,0c0,19.84,0,39.51,0,59.22c-2.64-0.41-5.04-0.78-7.44-1.16c-0.01-0.24-0.03-0.48-0.04-0.71
		c0.17-0.05,0.34-0.11,0.51-0.16c0.71-0.28,1.42-0.57,2.13-0.85c-0.53-0.37-1.07-0.74-1.6-1.11c-0.17-0.89-0.49-1.78-0.49-2.67
		c-0.03-18.9-0.02-37.79-0.02-56.69c0-2.29,0-4.58,0-7.35c1.53,0.68,2.76,1.22,3.98,1.76c-0.94,0.1-1.88,0.2-2.89,0.3
		c0,0.41,0,1.34,0,2.27c0.2,0.2,0.4,0.41,0.61,0.61c1.04-0.77,2.08-1.53,3.12-2.3c-0.51,2.6,1.43,1.83,2.62,1.83
		c39.37,0.02,78.74,0.02,118.12,0.02c0.85,0,1.7,0,2.56,0c0-85.74,0-171.2,0-256.63c-40.49,0-80.78,0-121.27,0
		c0,71.58,0,143.01,0,213.63c-1.09,1.14-1.7,1.77-2.79,2.92c2.45,0.17,3.93,0.28,5.41,0.38c0.01,0.25,0.01,0.51,0.02,0.76
		c-2.11-0.1-4.22-0.21-6.33-0.31c-0.19,0.16-0.37,0.31-0.56,0.47c-0.77,0.29-1.53,0.58-2.64,1.01c0-1.68,0-2.89,0-4.09
		c0.01-0.34,0.03-0.68,0.04-1.01c1.99,0,3.98,0,6,0c0-71.46,0-142.57,0-213.94c-1.71,0-3.27,0-4.84,0c-0.38,0.15-0.76,0.3-1.15,0.45
		c-0.74-0.14-1.47-0.39-2.21-0.39c-34.96-0.02-69.91-0.02-104.87-0.01c-0.66,0-1.33,0.11-1.98,0.17c0,69.3,0,138.39,0,207.6
		c4.11,0,8.06,0,11.57,0c0.83,0.99,1.44,1.71,2.06,2.43c0.22-0.14,0.43-0.28,0.65-0.42c0.06-0.77,0.13-1.55,0.19-2.32
		c0.24,0.02,0.47,0.03,0.71,0.05c0.38,2.4,0.76,4.81,1.14,7.26c-1.61,0-3.08,0-4.54,0c-0.07-0.4-0.13-0.79-0.2-1.19
		c0-1.64,0-3.27,0-5.09c-4.31,0-8.32,0-12.59,0c0-69.57,0-138.95,0-208.33c-1.88,0-3.5,0-5.29,0c0,59.32,0,118.47,0,177.91
		c-38.78,0-77.37,0-116.07,0c0.13,1.87,0.23,3.44,0.34,5.01c0,0.31,0.01,0.62,0.01,0.92c-1.72,0-3.45,0-5.08,0
		c-0.66-3.89,3.64-4.13,4.47-6.96c38.43,0,76.9,0,115.38,0c0-59.08,0-118.01,0-177.07c-52.61,0-105.01,0-157.42,0
		c-0.39,0.14-0.79,0.28-1.18,0.42c-1.67-0.18-3.34-0.36-5.1-0.55c0,61.32,0,122.27,0,183.22c1.76,0,3.31,0,5.13,0
		c0-1.32,0-2.54,0-3.76c0.36-0.02,0.72-0.05,1.07-0.07c0.16,0.04,0.31,0.01,0.44-0.08c2.17,0.29,1.36-1.41,1.37-2.29
		c0.05-12,0.02-24,0.07-36c0-0.66,0.54-1.32,0.83-1.97c0,13.41,0,26.82,0,40.24c2.22,0.63,1.83-0.94,1.83-2.09
		c0.01-9.1,0.09-18.2-0.04-27.3c-0.05-3.61-0.59-7.2-0.9-10.8c1.06,0.21,2.12,0.41,3.18,0.62c0,0.22-0.01,0.44-0.01,0.66
		c-0.33-0.06-0.66-0.12-0.98-0.18c-0.2,0.16-0.39,0.31-0.59,0.47c0,13.13,0,26.25,0,39.33c-1.02,0.18-1.81,0.31-2.57,0.44
		c0.46,1.31,0.83,2.4,1.26,3.64c-5.34,0-10.21,0-15.53,0c0.58-1.38,1.03-2.45,1.47-3.5c-0.88-0.38-1.71-0.74-2.54-1.1
		c0.87-0.15,1.75-0.31,2.62-0.46c-0.02-12.94-0.03-25.87-0.05-38.81c0.01-0.34,0.02-0.69,0.04-1.03c0.28,0.67,0.8,1.33,0.8,2
		c0.05,11.77,0.04,23.53,0.04,35.3c0,0.93,0,1.87,0,2.82c2.94,0.48,2.08-1.53,2.08-2.64c0.03-57.85,0.03-115.71,0.02-173.56
		c0-0.93-0.08-1.85-0.12-2.74c-54.86,0-109.42,0-163.92,0c0,59.07,0,117.95,0,176.95c40.66,0,81.16,0,121.8,0
		c0.12,0.75,0.23,1.41,0.34,2.06c0.22,0.12,0.44,0.25,0.65,0.37c0.45-0.61,0.91-1.23,1.36-1.84c0.22,0.02,0.45,0.03,0.67,0.05
		c0.43,2.05,0.86,4.11,1.31,6.22c-1.41,0.07-2.52,0.12-3.64,0.18c-0.14,0.14-0.28,0.28-0.41,0.42c-0.06,1.13-0.13,2.26-0.21,3.74
		c-1.31-0.47-2.42-0.87-3.6-1.3c-0.15,0.91-0.29,1.72-0.46,2.7c-13.23,0-26.3,0-39.46,0c0.15,1.26,0.28,2.3,0.4,3.34
		c-0.21,0-0.41,0.01-0.62,0.01c-0.41-2.26-0.82-4.51-1.26-6.97c13.77,0,27,0,40.3,0c0-0.74,0-1.35,0-1.96
		c0.03-0.32,0.07-0.65,0.1-0.97c1.21-0.08,2.42-0.15,3.77-0.23c0-1.67,0-3.23,0-4.91c-40.39,0-80.74,0-121.16,0
		c0,1.77,0,3.35,0,4.94c0.01,0.39,0.02,0.79,0.03,1.18c-0.02,0.44-0.05,0.88-0.05,1.32c0,57.83,0,115.67,0,173.5
		c0,0.68,0.08,1.37,0.12,1.97c38.43,0,76.7,0,115.1,0c0-44.96,0-89.78,0-134.94c1.7,0.33,2.73-0.09,1.85-2.01
		c-1.14-0.07-2.27-0.14-3.4-0.21c0-0.24,0-0.47,0-0.71c1.76,0.04,3.52,0.09,5.28,0.13c0.15-0.13,0.3-0.27,0.44-0.4
		c0.84-0.31,1.68-0.61,2.82-1.03c0,1.95,0,3.35,0,4.74c0,6.9,0,13.8,0,20.7c-0.03,0.97-0.08,1.94-0.08,2.91
		c0,35.04,0,70.09,0,105.13c0,0.97,0.06,1.94,0.09,2.91c0.31,0.88-1.22,2.43,0.96,2.62c1.03,0.36,2.06,0.71,3.08,1.07
		c-0.34,0.02-0.68,0.04-1.02,0.05c-1.01,0-2.01,0-2.97,0c0,1.23,0,2.16,0,3.08c0.2,0.14,0.41,0.28,0.61,0.42
		c0.46-0.54,0.9-1.09,1.37-1.61c0.29-0.33,0.61-0.63,0.92-0.94c0.22,0.21,0.44,0.42,0.66,0.62c-0.28,1.21-0.57,2.42-0.85,3.64
		c-0.22,0.02-0.45,0.03-0.67,0.05c-0.4-0.43-0.8-0.85-1.2-1.28c-0.49,0.65-0.98,1.3-1.61,2.14c-40.23,0-80.73,0-121.35,0
		c0,56.91,0,113.73,0,170.54c54.71,0,109.28,0,164.07,0c0-0.92,0-1.7,0-2.47c0-55.81,0-111.62-0.01-167.43
		c0-0.62,0.11-1.28-0.06-1.84c-0.12-0.38-0.65-0.85-1.01-0.86c-0.33-0.01-0.87,0.48-0.98,0.85c-0.17,0.57-0.06,1.22-0.06,1.84
		c0,11.76,0,23.53-0.01,35.29c0,0.66-0.09,1.31-0.15,2.23c-1.94-0.28-3.65-0.53-5.37-0.77c0.01-0.17,0.02-0.33,0.02-0.5
		c0.49-0.05,0.99-0.09,1.48-0.14c0.15-0.14,0.3-0.27,0.44-0.41c0-13.05,0-26.1,0-39.11c1.11-0.16,1.92-0.27,2.69-0.38
		c-0.48-1.32-0.91-2.48-1.41-3.86c5.38,0,10.25,0,15.55,0c-0.51,1.36-0.92,2.47-1.33,3.57c-0.21,0.03-0.42,0.05-0.62,0.08
		c0.19-0.89,0.37-1.78,0.57-2.71c-0.86,0-1.7,0-2.61,0c0,1.07,0,2.05,0,3.35c0.84-0.28,1.45-0.49,2.06-0.69
		c0.14,0.37,0.28,0.74,0.43,1.12c0,13.12,0,26.25,0,39.37c0.33,0.1,0.66,0.21,0.99,0.31c0.36-0.78,1.02-1.56,1.03-2.35
		c0.06-11.74,0-23.47,0.08-35.21c0.01-1.71-0.62-2.17-2.1-2.09c0.06-0.39,0.12-0.78,0.17-1.16c0.14,0.12,0.28,0.25,0.42,0.37
		c0.67,0.07,1.34,0.15,2.25,0.25c0,13.11,0,26.13,0,39.15c0.13,0.13,0.26,0.25,0.39,0.38c0.52-0.05,1.05-0.09,1.57-0.14
		c0,0.24,0,0.49,0,0.73c-1.84,0.25-3.68,0.51-5.47,0.75c0-13.17,0-25.9,0-38.63c0-0.09,0.03-0.21-0.01-0.26
		c-0.39-0.44-0.8-0.86-1.2-1.29c-0.3,0.43-0.75,0.83-0.86,1.3c-0.15,0.67-0.04,1.41-0.04,2.11c0,40.32,0,80.64,0,120.95
		c0,1.06-0.06,2.12-0.08,3.18c-0.23,0.02-0.47,0.03-0.7,0.05c-0.02-0.97-0.05-1.94-0.05-2.92c0-40.86,0-81.72,0-122.58
		c0-2.01,0-4.01,0-5.95c-1.93,0-3.55,0-5.16,0c0,58.95,0,117.73,0,176.56c1.78,0,3.43,0,5.09,0c0.37,0.01,0.73,0.03,1.1,0.04
		c0.7,0.02,1.41,0.06,2.11,0.06c84.66,0,169.33,0,253.99,0c5.9,0,11.8-0.07,17.69-0.1c0.37,0.01,0.73,0.03,1.1,0.04
		c1.64,0,3.28,0,4.99,0c0-59.01,0-117.79,0-176.66c-79.1,0-158.07,0-237.22,0c0,1.74,0,3.37,0,5.2c1.11,0,2.15,0,3.19,0
		c75.31,0,150.63,0,225.94,0c0.79,0,1.6-0.05,2.37,0.06c0.21,0.03,0.34,0.6,0.5,0.93c-0.28,0.02-0.55,0.05-0.83,0.07
		c-1.04-0.09-2.08-0.25-3.11-0.25c-76.25-0.01-152.5-0.01-227.78-0.01c-1.34-1.07-2.06-1.65-2.78-2.22
		c-0.46-0.07-0.92-0.15-1.38-0.22c-0.23-0.7-0.47-1.39-0.7-2.09c0.22-0.2,0.43-0.4,0.65-0.6c0.31,0.31,0.62,0.63,0.94,0.93
		c0.51,0.49,1.02,0.97,1.93,1.83c0-1.82,0-2.68,0-3.71c-1.05,0-1.99,0-2.94,0c-0.22-0.22-0.44-0.45-0.66-0.67
		c2.6-0.05,5.21-0.14,7.81-0.14c75.73-0.01,151.45-0.01,227.18-0.02c0.95,0,1.9,0,2.75,0c0.78-2.37-0.67-2.11-1.92-2.11
		c-11.98,0-23.95,0.01-35.93,0c-0.66,0-1.31-0.1-2.19-0.17c0.25-1.59,0.46-2.96,0.67-4.33c0.22,0,0.44,0.01,0.66,0.01
		c0.7,0.34,1.4,0.99,2.1,0.99c11.63,0.06,23.26,0.04,34.89,0.04c0.87,0,1.73,0,2.68,0c0.12,0.98,0.22,1.79,0.32,2.65
		c1.23-0.52,2.31-0.97,3.65-1.52c0,67.41,0,134.35,0,201.47c-157,0-313.92,0-470.92,0c0-192.34,0-384.6,0-577.07
		c199.61,0,399.09,0,598.82,0c0,6.34,0,12.58,0,18.81c-0.2,0.04-0.4,0.08-0.59,0.13c-1.64,0-3.28,0-5.14,0c0,86.06,0,171.8,0,257.77
		c-42.82,0-85.41,0-127.93,0c0,20.25,0,40.25,0,60.31c1.79-0.1,3.34-0.18,5.11-0.27c0-18.32,0-36.47,0-54.73c1.01,0,1.79,0,2.57,0
		c40.87,0,81.73,0,122.6-0.02c1.01,0,2.02-0.24,3.03-0.37C605.12,368.26,605.22,368.27,605.32,368.22z M25.57,472.62
		c40.56,0,80.87,0,121.19,0c0-46.71,0-93.28,0-139.97c-1.76,0-3.38,0-5.14,0c0,44.96,0,89.78,0,134.85c-38.76,0-77.38,0-116.05,0
		C25.57,469.32,25.57,470.89,25.57,472.62z M433.71,463.66c12.98,0,25.95,0,38.93,0c0.14-0.22,0.27-0.43,0.41-0.65
		c-0.55-0.41-1.06-1.03-1.67-1.16c-0.92-0.2-1.92-0.05-2.89-0.05c-10.89,0-21.78,0-32.67,0.01
		C434.66,461.81,433.13,461.45,433.71,463.66z M103.92,292.39c-0.71,2.15,0.55,2.01,1.74,2.01c8.88-0.01,17.75-0.01,26.63-0.01
		c3.5,0,7,0,10.5,0c0.13-0.26,0.26-0.53,0.39-0.79c-0.57-0.4-1.14-1.16-1.71-1.16C129.01,292.38,116.54,292.39,103.92,292.39z
		 M185.84,510.85c0.26-0.16,0.52-0.31,0.79-0.47c0-12.95,0-25.9,0-38.85c-0.89,0.18-1.49,0.61-1.6,1.14
		c-0.19,0.84-0.05,1.76-0.05,2.64c0,11.04-0.01,22.08,0.04,33.12C185.02,509.24,185.55,510.04,185.84,510.85z M146.63,328.16
		c-1.26,1.13-2.18,1.96-3.11,2.79c0.16,0.19,0.32,0.37,0.48,0.56c0.84,0,1.69,0,2.63,0C146.63,330.5,146.63,329.57,146.63,328.16z
		 M150.53,288.59c-1.51-0.15,0.31-4.24-2.74-2.78c0,0.94,0,1.85,0,2.78C148.81,288.59,149.67,288.59,150.53,288.59z M373.53,319.23
		c1.71,0,2.6,0,3.45,0c-0.48-1.05-0.9-2-1.73-3.82C374.58,316.89,374.15,317.84,373.53,319.23z M238.86,288.53
		c-0.39-1.24-0.66-2.09-0.93-2.95c-0.9,0.87-1.8,1.73-3.06,2.95C236.44,288.53,237.36,288.53,238.86,288.53z M196.82,288.55
		c1,0,1.85,0,2.98,0c-0.87-1.25-1.58-2.26-2.28-3.27c-0.23,0.15-0.47,0.3-0.7,0.45C196.82,286.59,196.82,287.44,196.82,288.55z
		 M474.98,321.15c-0.14-0.21-0.28-0.42-0.42-0.63c-0.97,0-1.94,0-2.84,0c0,1.04,0,1.88,0,3
		C472.95,322.63,473.96,321.89,474.98,321.15z"/>
	<path class="st1" d="M604.78,105.53c0.2-0.04,0.4-0.08,0.59-0.13c0.02,0.79,0.07,1.59,0.07,2.38c0,85.93,0,171.86,0,257.79
		c0,0.88-0.08,1.76-0.12,2.64c-0.1,0.05-0.21,0.05-0.31-0.01c-0.03-1.06-0.08-2.12-0.08-3.18c0-85.35,0-170.71-0.01-256.06
		C604.92,107.82,604.83,106.67,604.78,105.53z"/>
	<path class="st2" d="M433.83,460.04c-0.22,0-0.44-0.01-0.66-0.01c1.04-3.52,1.59-7.28,3.2-10.51
		c6.91-13.95,18.12-21.79,33.77-22.86c0.01,0.24,0.03,0.48,0.04,0.71c-7.64,0.76-14.71,3.05-20.94,7.7
		C440.82,441.36,435.99,449.87,433.83,460.04z"/>
	<path class="st3" d="M470.14,426.65c-15.65,1.08-26.86,8.91-33.77,22.86c-1.6,3.24-2.16,6.99-3.2,10.51
		c-0.21,1.37-0.42,2.74-0.67,4.33c0.88,0.07,1.53,0.17,2.19,0.17c11.98,0.01,23.95,0.01,35.93,0c1.25,0,2.7-0.26,1.92,2.11
		c-0.85,0-1.8,0-2.75,0c-75.73,0-151.45,0-227.18,0.02c-2.6,0-5.21,0.09-7.81,0.14c0.03,0.74,0.05,1.48,0.08,2.22
		c0.23,0.7,0.47,1.39,0.7,2.09c0.27,17.65-11.37,34.51-31.4,39.04c-0.52,0.05-1.05,0.09-1.57,0.14c-0.13-0.13-0.26-0.25-0.39-0.38
		c0-13.02,0-26.04,0-39.15c-0.91-0.1-1.58-0.17-2.25-0.25c-0.04-0.14-0.12-0.25-0.24-0.32l-0.18-0.07c0.41-1.1,0.82-2.21,1.33-3.57
		c-5.3,0-10.16,0-15.55,0c0.5,1.38,0.93,2.54,1.41,3.86c-0.77,0.11-1.58,0.22-2.69,0.38c0,13.01,0,26.06,0,39.11
		c-0.15,0.14-0.3,0.27-0.44,0.41c-0.49,0.05-0.99,0.09-1.48,0.14c-0.01,0.17-0.02,0.33-0.02,0.5c1.71,0.25,3.43,0.49,5.37,0.77
		c0.07-0.91,0.15-1.57,0.15-2.23c0.01-11.76,0.01-23.53,0.01-35.29c0-0.62-0.11-1.27,0.06-1.84c0.11-0.37,0.65-0.86,0.98-0.85
		c0.36,0.01,0.89,0.48,1.01,0.86c0.18,0.57,0.06,1.22,0.06,1.84c0,55.81,0.01,111.62,0.01,167.43c0,0.78,0,1.56,0,2.47
		c-54.79,0-109.36,0-164.07,0c0-56.81,0-113.63,0-170.54c40.62,0,81.12,0,121.35,0c0.63-0.84,1.12-1.49,1.61-2.14
		c0.4,0.43,0.8,0.85,1.2,1.28c0.04,1.23-0.04,2.48,0.15,3.68c2.6,17.05,12.15,28.22,28.35,33.77c0.24,0.39,0.49,0.77,0.73,1.16
		c0.36-0.41,0.71-0.81,1.07-1.22c0.13-0.01,0.27-0.01,0.4-0.02c-0.08-0.04-0.15-0.09-0.23-0.12c-1.9-0.77-3.8-1.53-5.7-2.3
		c-0.28-2.68-2.01-2.3-3.79-1.79c-8.14-4.42-14.08-10.93-17.25-19.61c-1.58-4.33-2.08-9.05-3.07-13.59
		c0.28-1.21,0.57-2.42,0.85-3.64c0.14-0.54,0.29-1.09,0.43-1.63c-1.03-0.36-2.06-0.71-3.08-1.07c0.14-1.04,1.08-2.38-0.96-2.62
		c-0.03-0.97-0.09-1.94-0.09-2.91c-0.01-35.04-0.01-70.09,0-105.13c0-0.97,0.05-1.94,0.08-2.91c0.32-0.7,0.89-1.4,0.92-2.12
		c0.25-5.15,0.42-10.31,0.54-15.46c0.03-1.22,0.51-2.79-1.46-3.12c0-1.39,0-2.79,0-4.74c-1.14,0.42-1.98,0.73-2.82,1.03
		c-0.15,0.13-0.3,0.27-0.44,0.4c-1.76-0.04-3.52-0.09-5.28-0.13c-7.15-0.92-13.79-3.16-19.67-7.48
		c-7.75-5.7-12.48-13.41-15.11-22.54c-0.13-1.04-0.25-2.09-0.4-3.34c13.16,0,26.24,0,39.46,0c0.17-0.98,0.3-1.79,0.46-2.7
		c1.18,0.43,2.29,0.83,3.6,1.3c0.08-1.48,0.15-2.61,0.21-3.74c0.14-0.14,0.28-0.28,0.41-0.42c1.12-0.05,2.24-0.11,3.64-0.18
		c-0.45-2.12-0.88-4.17-1.31-6.22c0.12-0.95,0.24-1.9,0.34-2.85c0.88-7.94,3.61-15.08,8.96-21.1c1.78,0.24,2.36-0.61,2.06-2.27
		c4.33-4.89,9.85-7.88,15.9-10.02c2.04-0.46,4.07-0.93,6.31-1.44c0,1.33,0,2.37,0,3.42c0.03,11.94,0.07,23.87,0.11,35.81
		c0.83,0.36,1.66,0.72,2.54,1.1c-0.44,1.05-0.89,2.12-1.47,3.5c5.31,0,10.19,0,15.53,0c-0.43-1.23-0.81-2.32-1.26-3.64
		c0.76-0.13,1.55-0.27,2.57-0.44c0-13.08,0-26.21,0-39.33c0.2-0.16,0.39-0.31,0.59-0.47c0.33,0.06,0.66,0.12,0.98,0.18
		c0.32,0.12,0.63,0.27,0.96,0.35c6.88,1.55,13.05,4.43,18.13,9.45c-0.09,1.88,0.81,2.78,2.68,2.71c5.33,5.44,8.11,12.18,9.71,19.88
		c3.32-11.3-15.71-30.95-31.47-33.06c-1.06-0.21-2.12-0.41-3.18-0.62c-0.3-0.01-0.59-0.03-0.89-0.04c-0.29,0.66-0.83,1.32-0.83,1.97
		c-0.05,12-0.02,24-0.07,36c0,0.88,0.8,2.58-1.37,2.29c-0.15-0.13-0.29-0.26-0.44-0.39c-0.05-0.79-0.15-1.58-0.15-2.37
		c-0.01-57.93-0.01-115.87,0-173.8c0-0.88,0.14-1.75,0.22-2.63c52.4,0,104.81,0,157.42,0c0,59.06,0,117.99,0,177.07
		c-38.48,0-76.95,0-115.38,0c-0.84,2.83-5.13,3.06-4.47,6.96c1.64,0,3.36,0,5.08,0c0.96,0.04,1.93,0.11,2.89,0.11
		c36.36,0,72.72,0,109.08,0c0.93,0,1.86,0,2.96,0c0,10.41,0,20.46,0,30.65c6.41,0,12.63,0,18.86,0c1.46,0,2.92,0,4.54,0
		c-0.39-2.45-0.77-4.86-1.14-7.26c0.59-3.21,1.18-6.43,1.78-9.64c2.43-4.46,4.41-9.25,7.39-13.3c6.01-8.15,14.88-11.85,24.39-14.22
		c0,13.42,0,26.84,0,40.2c1.02,0.18,1.82,0.33,2.6,0.47c-0.45,1.41-0.8,2.53-1.2,3.79c6.33,0,12.13-0.01,17.93,0
		c13.65,0.03,27.29,0.07,40.94,0.11c0,1.2,0,2.41,0,4.09c1.1-0.42,1.87-0.71,2.64-1.01c0.19-0.16,0.37-0.31,0.56-0.47
		c2.11,0.1,4.22,0.21,6.33,0.31c4.87,1.62,10.08,2.61,14.56,4.99c11.01,5.84,17.09,15.56,19.56,27.68c-0.87,0.22-1.73,0.63-2.6,0.64
		c-11.75,0.05-23.51,0.03-35.26,0.05c-0.57,0-1.13,0.1-1.7,0.16c-0.05,1.07-0.09,1.93-0.13,2.8l0.08-0.09
		c-1.23-0.54-2.46-1.09-3.98-1.76c0,2.77,0,5.06,0,7.35c0,18.9-0.01,37.79,0.02,56.69c0,0.89,0.32,1.78,0.49,2.67
		c-0.18,0.65-0.35,1.31-0.53,1.96C470.47,426.54,470.31,426.6,470.14,426.65z M257.33,388.87c0-0.71-0.01-1.41-0.01-2.12
		c2.63-0.35,3.16-1.17,2.37-3.6c-0.32-0.98-0.51-2-0.91-2.94c-0.38-0.87-0.96-1.66-1.45-2.48c-0.06-1.94-0.12-3.87-0.18-5.81
		c-0.73-0.22-1.45-0.43-2.18-0.65c-2.08-2.55-5.92-2.55-7.4,0c-1.25-0.14-1.81,0.42-1.67,1.68c-0.67,0.6-1.88,1.16-1.92,1.8
		c-0.13,1.89-0.6,4.13,1.92,5.1c0,0.53,0,1.06,0,1.59c-1.53,2.04-2.38,4.19-1.64,6.85c0.28,1.03,0.18,2.33-0.17,3.36
		c-0.93,2.76-0.11,7.32,1.81,8.9c0.08,1.01,0.17,2.02,0.29,3.41c3.78-0.26,7.34-0.51,10.9-0.75c0.08-0.71,0.17-1.41,0.25-2.12
		c0.79-0.1,1.57-0.2,1.9-0.24c0-1.75,0-3.01,0-4.7c-0.36-0.17-1.13-0.54-1.89-0.91c0-1.24,0-2.47,0-3.71
		c0.74-0.38,1.48-0.76,2.22-1.14C258.81,389.89,258.07,389.38,257.33,388.87z M268.17,169.57c-0.17,0.08-0.35,0.16-0.52,0.25
		c-0.21,0.62-0.59,1.24-0.59,1.86c-0.01,16.66,0.01,33.32,0.03,49.98c0.89,0.21,1.78,0.42,2.67,0.63c-0.02,1.25-0.05,2.53,1.72,2.55
		c1.69,0.02,2.51-0.87,2.51-2.55c1.37-0.07,2.74-0.14,4.09-0.21c0.06-0.47,0.12-0.73,0.12-0.98c0.01-16.43,0.01-32.86-0.01-49.29
		c0-0.62-0.36-1.24-0.55-1.86c-0.51-0.12-1.03-0.25-1.54-0.37c-0.17-2.32-1.29-3.96-3.68-4.03
		C270,165.48,268.4,167.19,268.17,169.57z M94.13,536.4c-0.14,0.66-0.39,1.33-0.39,1.99c-0.02,16.66-0.02,33.32,0.01,49.97
		c0,0.72,0.35,1.43,0.53,2.15c3.65,0,7.29,0,10.9,0c0.09-0.62,0.15-0.88,0.15-1.13c0.01-17.12,0.02-34.23-0.01-51.35
		c0-0.53-0.33-1.06-0.5-1.59C101.26,536.44,97.69,536.42,94.13,536.4z M235.66,278.22c-0.35,0.59-0.71,0.93-0.7,1.25
		c0.01,0.34,0.37,0.66,0.57,0.99c0.29-0.33,0.73-0.62,0.82-1C236.42,279.19,236.01,278.81,235.66,278.22z"/>
	<path class="st3" d="M196.52,599.01c0.03-1.06,0.08-2.12,0.08-3.18c0-40.32,0-80.64,0-120.95c0-0.71-0.11-1.44,0.04-2.11
		c0.1-0.47,0.56-0.87,0.86-1.3c0.4,0.43,0.81,0.85,1.2,1.29c0.04,0.05,0.01,0.17,0.01,0.26c0,12.73,0,25.46,0,38.63
		c1.78-0.25,3.62-0.5,5.47-0.75c1.41-0.32,2.87-0.5,4.23-0.97c14.46-4.95,23.6-14.82,27.09-29.81c0.67-2.88,0.98-5.85,1.45-8.78
		c0.72,0.58,1.44,1.15,2.78,2.22c75.28,0,151.53,0,227.78,0.01c1.04,0,2.08,0.17,3.11,0.25c-0.01,1.06-0.04,2.12-0.04,3.18
		c0,55.72,0,111.45-0.01,167.17c-5.9,0.04-11.8,0.1-17.69,0.1c-84.66,0.01-169.33,0.01-253.99,0c-0.7,0-1.41-0.04-2.11-0.06
		c-0.02-12.7-0.04-25.39-0.08-38.09C196.71,603.75,196.59,601.38,196.52,599.01z M318.88,520.01c0,17.98,0,35.97,0,54.14
		c2.68,0,5.05,0.07,7.41-0.02c1.59-0.06,3.17-0.36,4.75-0.55c0-18.02,0-36.04,0-54.12c-2.9,0-5.45-0.06-7.99,0.02
		C321.65,519.53,320.27,519.83,318.88,520.01z"/>
	<path class="st4" d="M480.13,322.61c-1.48-0.1-2.96-0.21-5.41-0.38c1.09-1.14,1.7-1.78,2.79-2.92c0-70.61,0-142.04,0-213.63
		c40.48,0,80.77,0,121.27,0c0,85.44,0,170.9,0,256.63c-0.86,0-1.71,0-2.56,0c-39.37,0-78.74,0.01-118.12-0.02
		c-1.19,0-3.13,0.77-2.62-1.83c0,0-0.08,0.06-0.08,0.06c0.95-0.08,1.9-0.24,2.86-0.24c10.66-0.02,21.32-0.01,31.98-0.02
		c1.74,0,3.48,0,5.39,0c-0.24-1.6-0.44-2.94-0.65-4.28c-0.32-1.63-0.52-3.3-0.97-4.9C509.64,335.63,494.99,323.33,480.13,322.61z
		 M544.15,268.57c3.33,0,6.66,0,10,0c0.18-0.61,0.52-1.23,0.53-1.84c0.03-10.7,0.03-21.4,0.01-32.1c0-0.58-0.15-1.16-0.22-1.66
		c-3.68,0-7.17,0-10.75,0c-0.05,0.46-0.11,0.8-0.11,1.13c-0.01,10.96-0.01,21.93,0.02,32.89
		C543.62,267.52,543.97,268.05,544.15,268.57z"/>
	<path class="st4" d="M149.82,283.27c-0.45,0.61-0.91,1.23-1.36,1.84c-0.22-0.12-0.44-0.25-0.65-0.37
		c-0.11-0.65-0.21-1.31-0.34-2.06c-40.63,0-81.14,0-121.8,0c0-59,0-117.88,0-176.95c54.5,0,109.06,0,163.92,0
		c0.04,0.89,0.12,1.82,0.12,2.74c0.01,57.85,0.01,115.71-0.02,173.56c0,1.11,0.86,3.11-2.08,2.64c0-0.95,0-1.88,0-2.82
		c0-11.77,0.01-23.53-0.04-35.3c0-0.67-0.52-1.33-0.8-2c-3.27,0.65-6.54,1.3-9.81,1.96C161.92,250.59,149.21,267.79,149.82,283.27z
		 M89.69,154.78c-4.03-0.23-8.06-0.46-12.2-0.69c0,18.57,0,36.6,0,55.07c4.21-0.26,8.25-0.51,12.29-0.76c0.09-0.6,0.26-1.2,0.26-1.8
		c0.01-16.6,0.02-33.2,0-49.79C90.03,156.14,89.81,155.46,89.69,154.78z"/>
	<path class="st4" d="M376.09,313c-0.06,0.77-0.13,1.55-0.19,2.32c-0.22,0.14-0.43,0.28-0.65,0.42c-0.61-0.72-1.22-1.45-2.06-2.43
		c-3.51,0-7.45,0-11.57,0c0-69.21,0-138.3,0-207.6c0.66-0.06,1.32-0.17,1.98-0.17c34.96-0.01,69.91-0.01,104.87,0.01
		c0.74,0,1.47,0.26,2.21,0.39c-0.02,1.06-0.07,2.12-0.07,3.18c0,66.94,0,133.89,0,200.83c0,1.05,0,2.1,0,3.34c-1.15,0-2.1,0-3.04,0
		c-16.29,0-32.59-0.01-48.88,0.04c-0.84,0-1.74,0.35-2.51,0.73c-0.54,0.27-0.9,0.88-1.34,1.34c-0.3-0.7-0.86-1.41-0.87-2.11
		c-0.07-6.28-0.04-12.56-0.04-18.84c0-6.35,0-12.7,0-19.35c-1.32,0.12-2.43,0.21-3.54,0.31c-1.12,0.18-2.26,0.28-3.35,0.56
		c-14.36,3.76-24.28,12.4-29.03,26.69C377.36,306.11,376.72,309.55,376.09,313z M419.9,182.09c-3.15-0.09-6.3-0.27-9.45-0.18
		c-0.56,0.02-1.56,1.17-1.57,1.8c-0.1,10.07-0.1,20.14-0.01,30.22c0.01,0.61,0.88,1.74,1.36,1.74c3.22,0.04,6.44-0.15,9.67-0.27
		c0.17-0.53,0.49-1.06,0.5-1.6c0.03-9.93,0.03-19.86,0-29.79C420.39,183.37,420.07,182.73,419.9,182.09z"/>
	<path class="st3" d="M142.83,289.7c0,0.61,0,1.22,0,1.96c-13.3,0-26.53,0-40.3,0c0.45,2.46,0.85,4.72,1.26,6.97
		c0.49,1.77,0.85,3.58,1.49,5.29c5.37,14.34,19.99,25.27,33.91,25.43c1.13,0.07,2.26,0.14,3.4,0.21c0.88,1.92-0.15,2.34-1.85,2.01
		c0,45.16,0,89.97,0,134.94c-38.4,0-76.67,0-115.1,0c-0.04-0.61-0.12-1.29-0.12-1.97c-0.01-57.83-0.01-115.67,0-173.5
		c0-0.44,0.03-0.88,0.05-1.32C64.66,289.7,103.75,289.7,142.83,289.7z M84.16,352.48c-3.79,0-7.35,0-10.88,0
		c0,18.24,0,36.31,0,54.26c3.74,0,7.3,0,10.88,0C84.16,388.62,84.16,370.68,84.16,352.48z"/>
	<path class="st5" d="M604.78,105.53c0.05,1.15,0.14,2.29,0.14,3.44c0.01,85.35,0.01,170.71,0.01,256.06c0,1.06,0.05,2.12,0.08,3.18
		c-1.01,0.13-2.02,0.37-3.03,0.37c-40.87,0.02-81.73,0.02-122.6,0.02c-0.78,0-1.56,0-2.57,0c0,18.25,0,36.41,0,54.73
		c-1.76,0.09-3.32,0.18-5.11,0.27c0-20.06,0-40.07,0-60.31c42.52,0,85.11,0,127.93,0c0-85.97,0-171.71,0-257.77
		C601.5,105.53,603.14,105.53,604.78,105.53z"/>
	<path class="st6" d="M471.46,473.75c-0.17-0.32-0.29-0.9-0.5-0.93c-0.78-0.12-1.58-0.06-2.37-0.06c-75.31,0-150.63,0-225.94,0
		c-1.04,0-2.08,0-3.19,0c0-1.83,0-3.46,0-5.2c79.15,0,158.12,0,237.22,0c0,58.87,0,117.65,0,176.66c-1.7,0-3.35,0-4.99,0
		c-0.02-1.06-0.07-2.12-0.07-3.18c-0.01-54.71-0.01-109.42-0.01-164.12C471.6,475.86,471.51,474.8,471.46,473.75z"/>
	<path class="st7" d="M239.59,288.62c-0.11-1.57-0.21-3.14-0.34-5.01c38.7,0,77.29,0,116.07,0c0-59.44,0-118.59,0-177.91
		c1.8,0,3.42,0,5.29,0c0,69.37,0,138.75,0,208.33c4.26,0,8.28,0,12.59,0c0,1.82,0,3.45,0,5.09c-5.86,0-11.71,0-17.82,0
		c0-10.16,0-20.26,0-30.49C316.62,288.62,278.1,288.62,239.59,288.62z"/>
	<path class="st8" d="M25.57,472.62c0-1.73,0-3.3,0-5.12c38.67,0,77.29,0,116.05,0c0-45.07,0-89.89,0-134.85c1.76,0,3.38,0,5.14,0
		c0,46.69,0,93.26,0,139.97C106.44,472.62,66.14,472.62,25.57,472.62z"/>
	<path class="st5" d="M471.83,105.49c1.57,0,3.13,0,4.84,0c0,71.37,0,142.48,0,213.94c-2.02,0-4.01,0-6,0c-17.93,0-35.86,0-53.78,0
		c0-1.98,0-3.54,0-5.39c18.29,0,36.45,0,54.58,0c0.08-0.47,0.13-0.63,0.13-0.8c-0.01-68.2-0.02-136.4-0.01-204.6
		C471.58,107.59,471.74,106.54,471.83,105.49z"/>
	<path class="st9" d="M195.8,284.86c0,1.22,0,2.44,0,3.76c-1.82,0-3.37,0-5.13,0c0-60.95,0-121.9,0-183.22
		c1.75,0.19,3.43,0.37,5.1,0.55c-0.02,0.53-0.07,1.06-0.07,1.59c0,58.49,0,116.99,0,175.48
		C195.71,283.63,195.77,284.24,195.8,284.86z"/>
	<path class="st9" d="M195.7,644.17c-1.65,0-3.31,0-5.09,0c0-58.83,0-117.61,0-176.56c1.61,0,3.23,0,5.16,0c0,1.94,0,3.95,0,5.95
		c0,40.86,0,81.72,0,122.58c0,0.97,0.03,1.94,0.05,2.92c-0.04,0.96-0.11,1.93-0.11,2.89C195.7,616.02,195.7,630.1,195.7,644.17z"/>
	<path class="st5" d="M25.55,288.52c0-1.59,0-3.17,0-4.94c40.43,0,80.77,0,121.16,0c0,1.69,0,3.24,0,4.91
		c-1.36,0.08-2.57,0.16-3.77,0.23c-1.05-0.03-2.11-0.09-3.16-0.09c-37.02,0-74.05,0-111.07,0C27.65,288.63,26.6,288.56,25.55,288.52
		z"/>
	<path class="st10" d="M471.83,105.49c-0.09,1.05-0.25,2.1-0.25,3.15c0,68.2,0.01,136.4,0.01,204.6c0,0.17-0.05,0.33-0.13,0.8
		c-18.12,0-36.29,0-54.58,0c0,1.85,0,3.41,0,5.39c17.92,0,35.85,0,53.78,0c-0.01,0.34-0.03,0.68-0.04,1.01
		c-13.65-0.04-27.29-0.08-40.94-0.11c-5.8-0.01-11.61,0-17.93,0c0.4-1.26,0.75-2.38,1.2-3.79c-0.78-0.14-1.57-0.28-2.6-0.47
		c0-13.36,0-26.78,0-40.2c0.03-0.16,0.04-0.32,0.03-0.48c1.11-0.1,2.21-0.19,3.54-0.31c0,6.65,0,13,0,19.35
		c0,6.28-0.03,12.56,0.04,18.84c0.01,0.71,0.57,1.41,0.87,2.11c0.44-0.46,0.81-1.07,1.34-1.34c0.77-0.39,1.67-0.73,2.51-0.73
		c16.29-0.04,32.59-0.04,48.88-0.04c0.95,0,1.9,0,3.04,0c0-1.24,0-2.29,0-3.34c0-66.94,0-133.89,0-200.83
		c0-1.06,0.04-2.12,0.07-3.18C471.06,105.79,471.45,105.64,471.83,105.49z M412.06,315.55c0.27-0.11,0.54-0.21,0.81-0.32
		c0-13.02,0-26.05,0-39.07c-0.25-0.09-0.5-0.17-0.74-0.26c-0.28,0.68-0.81,1.36-0.81,2.05c-0.05,11.91-0.04,23.81,0,35.72
		C411.31,314.3,411.8,314.93,412.06,315.55z"/>
	<path class="st1" d="M195.8,284.86c-0.03-0.62-0.1-1.23-0.1-1.85c-0.01-58.49-0.01-116.99,0-175.48c0-0.53,0.05-1.06,0.07-1.59
		c0.39-0.14,0.79-0.28,1.18-0.42c-0.08,0.88-0.22,1.75-0.22,2.63c-0.01,57.93-0.01,115.87,0,173.8c0,0.79,0.1,1.58,0.15,2.37
		c-0.08,0.16-0.08,0.32,0,0.48C196.52,284.81,196.16,284.84,195.8,284.86z"/>
	<path class="st1" d="M471.46,473.75c0.05,1.06,0.14,2.11,0.14,3.17c0.01,54.71,0.01,109.42,0.01,164.12c0,1.06,0.05,2.12,0.07,3.18
		c-0.37-0.01-0.73-0.03-1.1-0.04c0-55.72,0-111.45,0.01-167.17c0-1.06,0.02-2.12,0.04-3.18
		C470.91,473.79,471.18,473.77,471.46,473.75z"/>
	<path class="st1" d="M239.59,288.62c38.51,0,77.02,0,115.79,0c0,10.23,0,20.34,0,30.49c6.11,0,11.97,0,17.82,0
		c0.07,0.4,0.13,0.79,0.2,1.19c-6.23,0-12.46,0-18.86,0c0-10.19,0-20.24,0-30.65c-1.1,0-2.03,0-2.96,0c-36.36,0-72.72,0-109.08,0
		c-0.96,0-1.93-0.07-2.89-0.11C239.6,289.24,239.6,288.93,239.59,288.62z"/>
	<path class="st1" d="M25.55,288.52c1.05,0.04,2.1,0.11,3.15,0.11c37.02,0,74.05,0,111.07,0c1.05,0,2.11,0.06,3.16,0.09
		c-0.03,0.32-0.07,0.65-0.1,0.97c-39.09,0-78.17,0-117.26,0C25.57,289.31,25.56,288.91,25.55,288.52z"/>
	<path class="st11" d="M199.59,244.44c0.3,0.01,0.59,0.03,0.89,0.04c0.32,3.6,0.85,7.2,0.9,10.8c0.13,9.1,0.05,18.2,0.04,27.3
		c0,1.15,0.39,2.72-1.83,2.09C199.59,271.27,199.59,257.86,199.59,244.44z"/>
	<path class="st11" d="M199.37,471.32c1.48-0.09,2.11,0.37,2.1,2.08c-0.08,11.74-0.02,23.47-0.08,35.21c0,0.78-0.67,1.57-1.03,2.35
		c-0.33-0.1-0.66-0.21-0.99-0.31c0-13.12,0-26.25,0-39.37C199.36,471.27,199.37,471.32,199.37,471.32z"/>
	<path class="st11" d="M433.71,463.66c-0.58-2.21,0.95-1.85,2.1-1.85c10.89-0.01,21.78-0.01,32.67-0.01c0.97,0,1.96-0.15,2.89,0.05
		c0.61,0.13,1.12,0.76,1.67,1.16c-0.14,0.22-0.27,0.43-0.41,0.65C459.66,463.66,446.69,463.66,433.71,463.66z"/>
	<path class="st11" d="M103.92,292.39c12.62,0,25.09-0.02,37.56,0.05c0.57,0,1.14,0.76,1.71,1.16c-0.13,0.26-0.26,0.53-0.39,0.79
		c-3.5,0-7,0-10.5,0c-8.88,0-17.75,0-26.63,0.01C104.47,294.41,103.21,294.55,103.92,292.39z"/>
	<path class="st2" d="M236.96,471.33c-0.47,2.93-0.78,5.9-1.45,8.78c-3.49,14.99-12.64,24.86-27.09,29.81
		c-1.36,0.47-2.82,0.65-4.23,0.97c0-0.24,0-0.49,0-0.73c20.02-4.54,31.66-21.4,31.4-39.04C236.04,471.19,236.5,471.26,236.96,471.33
		z"/>
	<path class="st3" d="M185.84,510.85c-0.29-0.81-0.82-1.61-0.83-2.42c-0.06-11.04-0.04-22.08-0.04-33.12c0-0.88-0.13-1.8,0.05-2.64
		c0.12-0.53,0.71-0.96,1.6-1.14c0,12.95,0,25.9,0,38.85C186.36,510.54,186.1,510.69,185.84,510.85z"/>
	<path class="st2" d="M150.49,472.68c0.99,4.54,1.49,9.27,3.07,13.59c3.17,8.68,9.11,15.19,17.25,19.61c1.26,0.6,2.52,1.2,3.79,1.79
		c1.9,0.77,3.8,1.53,5.7,2.3c0.08,0.03,0.15,0.08,0.23,0.12c-0.13,0.01-0.27,0.01-0.4,0.03c-0.6,0.02-1.2,0.04-1.81,0.05
		c-16.2-5.54-25.75-16.72-28.35-33.77c-0.18-1.21-0.11-2.45-0.15-3.68C150.05,472.71,150.27,472.7,150.49,472.68z"/>
	<path class="st3" d="M186.74,245.59c0.02,12.94,0.03,25.87,0.05,38.81c-1.67,0.95-1.71-0.17-1.71-1.36
		c0-11.98,0.01-23.97-0.03-35.95C185.05,245.79,185.48,245.3,186.74,245.59z"/>
	<path class="st1" d="M480.13,322.61c14.86,0.72,29.5,13.01,33.88,28.48c0.45,1.6,0.65,3.26,0.97,4.9
		c-0.24,0.01-0.48,0.03-0.71,0.04c-2.47-12.12-8.55-21.84-19.56-27.68c-4.48-2.37-9.68-3.37-14.56-4.99
		C480.14,323.12,480.14,322.86,480.13,322.61z"/>
	<path class="st2" d="M139.2,329.35c-13.92-0.16-28.54-11.09-33.91-25.43c-0.64-1.71-1-3.53-1.49-5.29c0.21,0,0.41-0.01,0.62-0.01
		c2.63,9.14,7.36,16.85,15.11,22.54c5.88,4.32,12.52,6.56,19.67,7.48C139.2,328.88,139.2,329.12,139.2,329.35z"/>
	<path class="st2" d="M149.82,283.27c-0.61-15.47,12.09-32.68,27.15-36.75c0.26,0.18,0.53,0.37,0.79,0.55
		c-6.05,2.14-11.57,5.13-15.9,10.02c-0.69,0.76-1.37,1.52-2.06,2.27c-5.35,6.03-8.08,13.17-8.96,21.1c-0.11,0.95-0.23,1.9-0.34,2.85
		C150.27,283.3,150.05,283.28,149.82,283.27z"/>
	<path class="st10" d="M222.74,255.57c-5.08-5.02-11.26-7.91-18.13-9.45c-0.33-0.07-0.64-0.23-0.96-0.35c0-0.22,0.01-0.44,0.01-0.66
		c15.76,2.11,34.78,21.76,31.47,33.06c-1.6-7.7-4.38-14.44-9.71-19.88C224.53,257.37,223.63,256.47,222.74,255.57z"/>
	<path class="st12" d="M177.76,247.07c-0.26-0.18-0.53-0.37-0.79-0.55c3.27-0.65,6.54-1.31,9.81-1.96
		c-0.01,0.34-0.02,0.69-0.04,1.03c-1.26-0.29-1.69,0.2-1.69,1.5c0.04,11.98,0.03,23.97,0.03,35.95c0,1.18,0.04,2.3,1.71,1.36
		c-0.87,0.15-1.75,0.31-2.62,0.46c-0.04-11.94-0.07-23.87-0.11-35.81c0-1.05,0-2.1,0-3.42C181.83,246.14,179.8,246.6,177.76,247.07z
		"/>
	<path class="st12" d="M195.7,644.17c0-14.07,0-28.15,0.01-42.22c0-0.96,0.07-1.93,0.11-2.89c0.23-0.02,0.47-0.03,0.7-0.05
		c0.07,2.37,0.18,4.74,0.19,7.11c0.04,12.7,0.06,25.39,0.08,38.09C196.43,644.2,196.06,644.18,195.7,644.17z"/>
	<path class="st3" d="M147.74,332.08c1.97,0.33,1.49,1.9,1.46,3.12c-0.13,5.16-0.29,10.31-0.54,15.46c-0.03,0.72-0.6,1.41-0.92,2.12
		C147.74,345.88,147.74,338.98,147.74,332.08z"/>
	<path class="st1" d="M376.09,313c0.64-3.45,1.28-6.89,1.91-10.34c0.19,0.25,0.38,0.5,0.57,0.74c-0.59,3.21-1.18,6.43-1.78,9.64
		C376.56,313.03,376.32,313.01,376.09,313z"/>
	<path class="st11" d="M146.63,328.16c0,1.42,0,2.34,0,3.35c-0.94,0-1.78,0-2.63,0c-0.16-0.19-0.32-0.37-0.48-0.56
		C144.45,330.11,145.38,329.28,146.63,328.16z"/>
	<path class="st13" d="M475.4,360.53c0,0,0.08-0.06,0.08-0.06c-1.04,0.77-2.08,1.53-3.12,2.3c-0.2-0.2-0.4-0.41-0.61-0.61
		c0-0.93,0-1.86,0-2.27c1.02-0.11,1.95-0.21,2.89-0.3c0,0-0.08,0.09-0.08,0.09c0.29,0.02,0.58,0.04,0.87,0.07l-0.06-0.06
		C475.39,359.96,475.39,360.25,475.4,360.53z"/>
	<path class="st13" d="M150.53,288.59c-0.86,0-1.72,0-2.74,0c0-0.94,0-1.84,0-2.78C150.84,284.35,149.02,288.44,150.53,288.59z"/>
	<path class="st13" d="M198.94,470.16c-0.61,0.21-1.22,0.41-2.06,0.69c0-1.3,0-2.28,0-3.35c0.91,0,1.75,0,2.61,0
		c-0.19,0.93-0.38,1.82-0.57,2.71C198.92,470.22,198.94,470.16,198.94,470.16z"/>
	<path class="st13" d="M235.46,467.48c0.94,0,1.89,0,2.94,0c0,1.03,0,1.89,0,3.71c-0.91-0.86-1.43-1.34-1.93-1.83
		c-0.32-0.31-0.63-0.62-0.94-0.93C235.5,468.11,235.48,467.79,235.46,467.48z"/>
	<path class="st11" d="M373.53,319.23c0.62-1.39,1.05-2.34,1.72-3.82c0.83,1.83,1.26,2.77,1.73,3.82
		C376.13,319.23,375.24,319.23,373.53,319.23z"/>
	<path class="st11" d="M238.86,288.53c-1.5,0-2.43,0-3.99,0c1.26-1.21,2.16-2.08,3.06-2.95
		C238.2,286.43,238.47,287.29,238.86,288.53z"/>
	<path class="st8" d="M150.69,468.42c-0.31,0.31-0.63,0.62-0.92,0.94c-0.47,0.53-0.91,1.07-1.37,1.61c-0.2-0.14-0.41-0.28-0.61-0.42
		c0-0.93,0-1.86,0-3.08c0.96,0,1.97,0,2.97,0C150.74,467.79,150.71,468.11,150.69,468.42z"/>
	<path class="st11" d="M196.82,288.55c0-1.11,0-1.96,0-2.82c0.23-0.15,0.47-0.3,0.7-0.45c0.71,1.01,1.41,2.02,2.28,3.27
		C198.67,288.55,197.82,288.55,196.82,288.55z"/>
	<path class="st11" d="M474.98,321.15c-1.01,0.74-2.02,1.47-3.26,2.38c0-1.12,0-1.97,0-3c0.9,0,1.87,0,2.84,0
		C474.7,320.73,474.84,320.94,474.98,321.15z"/>
	<path class="st3" d="M470.64,426.49c0.18-0.65,0.35-1.31,0.53-1.96c0.53,0.37,1.07,0.74,1.6,1.11
		C472.06,425.92,471.35,426.2,470.64,426.49z"/>
	<path class="st3" d="M147.74,463.72c2.04,0.24,1.09,1.58,0.96,2.62C146.52,466.16,148.06,464.6,147.74,463.72z"/>
	<path class="st2" d="M235.46,467.48c0.02,0.31,0.04,0.63,0.06,0.94c-0.22,0.2-0.43,0.4-0.65,0.6c-0.03-0.74-0.05-1.48-0.08-2.22
		C235.02,467.03,235.24,467.25,235.46,467.48z"/>
	<path class="st2" d="M150.69,468.42c0.02-0.32,0.05-0.63,0.07-0.95c0.34-0.02,0.68-0.04,1.02-0.05c-0.14,0.54-0.29,1.09-0.43,1.63
		C151.13,468.84,150.91,468.63,150.69,468.42z"/>
	<path class="st11" d="M198.94,470.16c0,0-0.02,0.06-0.01,0.06c0.21-0.03,0.42-0.05,0.62-0.08c0,0,0.18,0.07,0.18,0.07
		c0,0-0.18-0.05-0.18-0.05c-0.06,0.39-0.12,0.77-0.17,1.16c0,0-0.01-0.05-0.01-0.04C199.22,470.9,199.08,470.53,198.94,470.16z"/>
	<path class="st3" d="M148.16,289.72c-0.14,0.14-0.28,0.28-0.41,0.42C147.89,290,148.03,289.86,148.16,289.72z"/>
	<path class="st3" d="M144.48,328.78c0.15-0.13,0.3-0.27,0.44-0.4C144.77,328.51,144.63,328.64,144.48,328.78z"/>
	<path class="st3" d="M202.22,509.91c0.13,0.13,0.26,0.25,0.39,0.38C202.48,510.17,202.35,510.04,202.22,509.91z"/>
	<path class="st3" d="M199.54,470.15c0,0,0.18,0.05,0.18,0.05c0.13,0.07,0.21,0.17,0.25,0.32
		C199.83,470.4,199.69,470.28,199.54,470.15z"/>
	<path class="st3" d="M196.88,284.79c-0.08-0.16-0.08-0.32,0-0.48c0.15,0.13,0.29,0.26,0.44,0.39
		C197.19,284.8,197.04,284.83,196.88,284.79z"/>
	<path class="st1" d="M473.82,323.06c-0.19,0.16-0.37,0.31-0.56,0.47C473.45,323.37,473.63,323.22,473.82,323.06z"/>
	<path class="st10" d="M202.66,245.58c-0.2,0.16-0.39,0.31-0.59,0.47C202.27,245.89,202.47,245.74,202.66,245.58z"/>
	<path class="st3" d="M183.6,510.32c0.15-0.14,0.3-0.27,0.44-0.41C183.89,510.05,183.75,510.19,183.6,510.32z"/>
	<path class="st0" d="M475.4,360.53c-0.01-0.28-0.02-0.57-0.03-0.85c12.98,0,25.97,0,38.9,0c0.67-1.92-0.13-2.19-1.55-2.18
		c-5.36,0.05-10.72,0.02-16.08,0.02c-7.02,0-14.03,0-21.21,0c0,0.87,0,1.54,0,2.22c-0.29-0.02-0.58-0.04-0.87-0.07
		c0.04-0.87,0.08-1.74,0.13-2.8c0.57-0.05,1.14-0.15,1.7-0.16c11.76-0.01,23.51,0,35.26-0.05c0.87,0,1.73-0.42,2.6-0.64
		c0.24-0.01,0.48-0.03,0.71-0.04c0.2,1.34,0.4,2.68,0.65,4.28c-1.91,0-3.65,0-5.39,0c-10.66,0-21.32,0-31.98,0.02
		C477.31,360.29,476.36,360.45,475.4,360.53z"/>
	<path class="st2" d="M378.57,303.41c-0.19-0.25-0.38-0.5-0.57-0.74c4.76-14.29,14.67-22.94,29.03-26.69
		c1.09-0.29,2.23-0.38,3.35-0.56c0,0.16-0.01,0.32-0.03,0.48c-9.5,2.37-18.38,6.08-24.39,14.22
		C382.98,294.15,381,298.95,378.57,303.41z"/>
	<path class="st14" d="M104.82,536.45c0.18,0.53,0.5,1.06,0.5,1.58c0.02,17.12,0.02,34.23,0.01,51.35c0,0.26-0.07,0.52-0.15,1.13
		c-3.6,0-7.25,0-10.9,0c0-0.19-0.01-0.38-0.01-0.58c3.48,0,6.95,0,10.57,0c0-18.01,0-35.76,0-53.51L104.82,536.45z"/>
	<path class="st14" d="M277.64,169.95c0.19,0.62,0.55,1.24,0.55,1.86c0.03,16.43,0.02,32.86,0.01,49.29c0,0.26-0.06,0.51-0.12,0.98
		c-1.35,0.07-2.72,0.14-4.09,0.21c-1.41,0-2.82,0-4.23,0c-0.89-0.21-1.78-0.42-2.67-0.63c0.21-0.02,0.42-0.03,0.64-0.05
		c3.29,0,6.58,0,9.89,0c0-17.18,0-34.01,0-50.85C277.63,170.49,277.63,170.22,277.64,169.95z"/>
	<path class="st3" d="M245.88,400.56c-1.92-1.57-2.74-6.14-1.81-8.9c0.35-1.03,0.46-2.32,0.17-3.36c-0.73-2.66,0.11-4.81,1.64-6.85
		C245.88,387.82,245.88,394.19,245.88,400.56z"/>
	<path class="st15" d="M94.27,589.95c0,0.19,0.01,0.38,0.01,0.58c-0.19-0.72-0.53-1.43-0.53-2.15c-0.03-16.66-0.03-33.32-0.01-49.97
		c0-0.66,0.25-1.33,0.39-1.99l0.14,0.11C94.27,554.33,94.27,572.14,94.27,589.95z"/>
	<path class="st14" d="M245.88,400.56c0-6.37,0-12.74,0-19.11c0-0.53,0-1.06,0-1.59c0-2.3,0-4.6,0-6.9
		c-0.14-1.26,0.42-1.82,1.67-1.68c2.47,0,4.93,0,7.4,0c0.73,0.22,1.45,0.43,2.18,0.65c-0.23,0.01-0.45,0.03-0.68,0.04
		c-3.3,0-6.59,0-9.82,0c0,10.57,0,20.79,0,31.19c3.38,0,6.61,0,9.83,0c0.2,0.02,0.4,0.04,0.61,0.06c-3.56,0.25-7.12,0.49-10.9,0.75
		C246.05,402.57,245.97,401.57,245.88,400.56z"/>
	<path class="st15" d="M267.72,221.61c-0.21,0.02-0.42,0.03-0.64,0.05c-0.02-16.66-0.04-33.32-0.03-49.98
		c0-0.62,0.39-1.24,0.59-1.86c0.02,0.33,0.05,0.65,0.07,0.98C267.72,187.73,267.72,204.67,267.72,221.61z"/>
	<path class="st3" d="M268.17,169.57c0.22-2.38,1.83-4.09,4.25-4.02c2.38,0.07,3.51,1.7,3.68,4.03
		C273.46,169.58,270.82,169.57,268.17,169.57z"/>
	<path class="st3" d="M257.31,377.73c0.49,0.82,1.08,1.61,1.45,2.48c0.4,0.94,0.59,1.96,0.91,2.94c0.8,2.44,0.27,3.25-2.37,3.6
		C257.31,383.75,257.31,380.74,257.31,377.73z"/>
	<path class="st15" d="M257.31,377.73c0,3.01,0,6.02,0,9.02c0,0.71,0.01,1.41,0.01,2.12c0,0.89,0,1.78,0,2.67c0,1.24,0,2.47,0,3.71
		c0,1.95,0,3.9,0,5.84c-0.08,0.71-0.17,1.41-0.25,2.12c-0.2-0.02-0.4-0.04-0.61-0.06c0-10.4-0.01-20.79-0.01-31.19
		c0.23-0.01,0.45-0.03,0.68-0.04C257.2,373.86,257.25,375.8,257.31,377.73z"/>
	<path class="st3" d="M245.88,372.95c0,2.3,0,4.6,0,6.9c-2.52-0.97-2.05-3.21-1.92-5.1C244.01,374.11,245.21,373.55,245.88,372.95z"
		/>
	<path class="st3" d="M257.32,401.1c0-1.95,0-3.9,0-5.84c0.77,0.37,1.53,0.73,1.89,0.91c0,1.69,0,2.95,0,4.7
		C258.89,400.9,258.11,401,257.32,401.1z"/>
	<path class="st3" d="M254.96,371.28c-2.47,0-4.93,0-7.4,0C249.04,368.73,252.88,368.72,254.96,371.28z"/>
	<path class="st16" d="M268.17,169.57c2.64,0,5.29,0,7.93,0c0.51,0.12,1.03,0.25,1.54,0.37c-0.01,0.27-0.02,0.54-0.03,0.82
		c-3.3,0.01-6.6,0.02-9.9,0.03c-0.02-0.32-0.05-0.65-0.07-0.98C267.82,169.74,268,169.66,268.17,169.57z"/>
	<path class="st3" d="M269.76,222.29c1.41,0,2.82,0,4.23,0c0,1.68-0.82,2.57-2.51,2.55C269.7,224.82,269.74,223.54,269.76,222.29z"
		/>
	<path class="st3" d="M257.33,391.54c0-0.89,0-1.78,0-2.67c0.74,0.51,1.48,1.02,2.22,1.53
		C258.81,390.78,258.07,391.16,257.33,391.54z"/>
	<path class="st14" d="M94.13,536.4c3.56,0.02,7.12,0.03,10.69,0.05c0,0,0.02-0.02,0.02-0.02c-3.52,0.03-7.04,0.06-10.56,0.08
		L94.13,536.4z"/>
	<path class="st3" d="M174.6,507.68c-1.26-0.6-2.52-1.2-3.79-1.79C172.6,505.39,174.32,505,174.6,507.68z"/>
	<path class="st3" d="M222.74,255.57c0.89,0.9,1.79,1.81,2.68,2.71C223.54,258.35,222.65,257.45,222.74,255.57z"/>
	<path class="st3" d="M235.66,278.22c0.35,0.59,0.76,0.97,0.7,1.24c-0.09,0.38-0.53,0.67-0.82,1c-0.21-0.33-0.57-0.66-0.57-0.99
		C234.95,279.14,235.3,278.81,235.66,278.22z"/>
	<path class="st3" d="M159.8,259.36c0.69-0.76,1.37-1.52,2.06-2.27C162.16,258.75,161.58,259.6,159.8,259.36z"/>
	<path class="st3" d="M178.32,510.18c0.6-0.01,1.21-0.03,1.81-0.05c-0.36,0.4-0.72,0.81-1.07,1.21
		C178.81,510.95,178.57,510.57,178.32,510.18z"/>
	<path class="st14" d="M318.88,520.01c1.39-0.18,2.77-0.48,4.16-0.53c2.54-0.09,5.09-0.02,7.99-0.02c0,18.08,0,36.1,0,54.12
		c-0.2,0-0.41,0-0.61,0c0.05-0.61,0.14-1.23,0.14-1.84c0.01-16.68,0.01-33.35,0-50.03c0-0.5-0.08-1.01-0.14-1.66
		c-3.74,0-7.32,0-10.9,0C319.31,520.04,319.1,520.02,318.88,520.01z"/>
	<path class="st15" d="M318.88,520.01c0.22,0.01,0.43,0.02,0.65,0.04c-0.03,17.39-0.06,34.77-0.07,52.16c0,0.4,0.21,0.8,0.36,1.37
		c3.6,0,7.1,0,10.61,0c0.2,0,0.41,0,0.61,0c-1.58,0.19-3.16,0.49-4.75,0.55c-2.36,0.09-4.72,0.02-7.41,0.02
		C318.88,555.98,318.88,538,318.88,520.01z"/>
	<path class="st14" d="M544.15,268.57c-0.18-0.52-0.53-1.05-0.53-1.57c-0.03-10.96-0.02-21.93-0.02-32.89
		c0-0.34,0.07-0.67,0.11-1.13c3.57,0,7.07,0,10.75,0c0.07,0.5,0.22,1.08,0.22,1.66c0.01,10.7,0.02,21.4-0.01,32.1
		c0,0.62-0.34,1.23-0.53,1.84c-0.02-0.26-0.05-0.52-0.07-0.78c0-11.45,0-22.9,0-34.31c-3.46,0-6.59,0-9.85,0c0,11.54,0,22.92,0,34.3
		C544.2,268.05,544.17,268.31,544.15,268.57z"/>
	<path class="st16" d="M544.15,268.57c0.02-0.26,0.05-0.52,0.07-0.78c3.28,0,6.57,0,9.85,0c0.02,0.26,0.05,0.52,0.07,0.78
		C550.81,268.57,547.48,268.57,544.15,268.57z"/>
	<path class="st16" d="M89.69,154.78c0.12,0.68,0.34,1.35,0.34,2.03c0.02,16.6,0.02,33.2,0,49.79c0,0.6-0.17,1.2-0.26,1.8
		c-0.29-0.02-0.57-0.04-0.86-0.06c0-17.83,0-35.66,0-53.49C89.17,154.83,89.43,154.81,89.69,154.78z"/>
	<path class="st14" d="M89.69,154.78c-0.26,0.02-0.51,0.04-0.77,0.07c-3.65,0-7.3,0-10.92,0c0,18.03,0,35.68,0,53.49
		c3.74,0,7.33,0,10.92,0c0.29,0.02,0.57,0.04,0.86,0.06c-4.04,0.25-8.08,0.5-12.29,0.76c0-18.47,0-36.5,0-55.07
		C81.62,154.33,85.66,154.56,89.69,154.78z"/>
	<path class="st16" d="M419.9,215.4c-3.22,0.12-6.45,0.32-9.67,0.27c-0.48-0.01-1.36-1.13-1.36-1.74
		c-0.09-10.07-0.09-20.14,0.01-30.22c0.01-0.63,1.01-1.78,1.57-1.8c3.15-0.09,6.3,0.09,9.45,0.18c-0.02,0.29-0.03,0.58-0.05,0.86
		c-3.28,0-6.56,0-9.76,0c0,10.83,0,21.25,0,31.75c3.4,0,6.56,0,9.71,0C419.83,214.94,419.87,215.17,419.9,215.4z"/>
	<path class="st14" d="M419.85,182.96c0.02-0.29,0.03-0.57,0.05-0.86c0.17,0.64,0.5,1.28,0.5,1.92c0.03,9.93,0.03,19.86,0,29.79
		c0,0.53-0.32,1.06-0.5,1.6c-0.03-0.23-0.07-0.46-0.1-0.7C419.82,204.13,419.83,193.54,419.85,182.96z"/>
	<path class="st14" d="M84.16,352.48c0,18.2,0,36.14,0,54.26c-3.58,0-7.14,0-10.88,0c0-17.95,0-36.02,0-54.26
		C76.81,352.48,80.37,352.48,84.16,352.48z M83.48,406.3c0-17.97,0-35.67,0-53.37c-3.34,0-6.46,0-9.7,0c0,17.87,0,35.57,0,53.37
		C77.07,406.3,80.2,406.3,83.48,406.3z"/>
	<path class="st9" d="M412.06,315.55c-0.26-0.63-0.74-1.25-0.75-1.88c-0.05-11.91-0.05-23.81,0-35.72c0-0.68,0.53-1.36,0.81-2.05
		c0.25,0.09,0.5,0.17,0.74,0.26c0,13.02,0,26.05,0,39.07C412.6,315.34,412.33,315.45,412.06,315.55z"/>
	<path class="st13" d="M475.44,359.74c0-0.68,0-1.35,0-2.22c7.18,0,14.2,0,21.21,0c5.36,0,10.72,0.03,16.08-0.02
		c1.42-0.01,2.22,0.26,1.55,2.18c-12.93,0-25.92,0-38.9,0C475.38,359.68,475.44,359.74,475.44,359.74z"/>
	<path class="st17" d="M94.27,536.52c3.52-0.03,7.04-0.06,10.56-0.08c0,17.75,0,35.5,0,53.51c-3.61,0-7.09,0-10.57,0
		C94.27,572.14,94.27,554.33,94.27,536.52z M97.94,583.72l0.03-0.05c-1.63,0.22-2.07,1.27-1.08,2.57c0.92,1.21,3.36,1.48,4.51,0.4
		c1.29-1.22,1.13-2.46-0.23-3.56c0.36-0.38,0.71-0.75,1.24-1.32c-1.12-0.25-1.91-0.43-2.71-0.61c-0.11-0.24-0.22-0.49-0.33-0.73
		c0.84-0.67,1.69-1.35,2.43-1.94c-1.59,0-3.32,0-4.8,0c0.62,0.65,1.23,1.28,1.85,1.92c-0.71,0.54-1.43,1.09-2.45,1.87
		c0.74,0.23,1.41,0.44,2.08,0.65l0.03-0.05C98.32,583.16,98.13,583.44,97.94,583.72z M100.48,559.1c0.55-0.37,1.09-0.75,1.64-1.12
		c-0.13-0.18-0.27-0.36-0.4-0.54c-0.59,0.4-1.17,0.8-1.76,1.2c-0.94-0.66-2.07-2.12-2.98-0.53c-0.59,1.02-0.11,2.66-0.11,4.02
		c0.11-0.03,0.22-0.06,0.33-0.09c-0.33,1.35-0.65,2.71-1.07,4.41c2.29,0,4.08,0,5.84,0c0.31-2.33,0.31-2.33-3.7-4.53
		c1.41-0.21,2.59-0.4,4.47-0.68c-1.49-0.42-2.26-0.64-3.19-0.9C99.96,559.79,100.22,559.45,100.48,559.1z M96.51,540.41
		c1.08,0.9,2.15,1.8,3.43,2.87c-0.66,0.21-1.15,0.24-1.45,0.48c-0.75,0.62-1.42,1.33-2.13,2.01c0.64,0.62,1.26,1.71,1.93,1.75
		c1.19,0.07,2.42-0.51,3.63-0.82c-0.27-0.9-0.31-1.98-0.84-2.68c-0.95-1.25-0.67-2.79,0.93-3.62
		C100.29,538.14,98.44,540.29,96.51,540.41z M102.09,568.07c-0.02-0.15-0.04-0.29-0.05-0.44c-1.81,0-3.62,0-5.43,0
		c-0.04,0.17-0.09,0.35-0.13,0.52c1.12,0.51,2.24,1.01,3.56,1.61c-1.31,0.63-2.43,1.18-3.56,1.72c0.08,0.14,0.15,0.28,0.23,0.42
		c1.77,0,3.53,0,4.78,0c0.15-0.98,0.25-1.63,0.38-2.46c-0.31-0.19-0.87-0.54-1.44-0.9C101.04,568.37,101.57,568.22,102.09,568.07z
		 M101.85,577.3c-1.74-1.64-1.85-3-0.03-4.71c-1.8,0.69-3.59,1.38-6.18,2.38C98.23,575.95,100.04,576.63,101.85,577.3z M96.6,555.91
		c1.72,1.41,3.67,0.46,5.42,0.69c0-1.31,0-2.43,0-3.92c-0.64,1.27-1.09,2.15-1.54,3.02c-0.44-0.49-0.88-0.98-1.01-1.13
		C98.6,554.99,97.85,555.33,96.6,555.91z"/>
	<path class="st17" d="M267.72,170.8c3.3-0.01,6.6-0.02,9.9-0.03c0,16.83,0,33.67,0,50.85c-3.31,0-6.6,0-9.89,0
		C267.72,204.67,267.72,187.73,267.72,170.8z M269.2,212.65l-0.05,0.08l0.07-0.09c1.7,0,3.41,0,4.84,0
		c-0.44-0.31-1.07-0.75-1.7-1.19c0.64-0.73,1.28-1.46,1.91-2.17c-1.6,0-3.28,0-4.83,0c0.7,0.75,1.29,1.38,1.87,2.01
		C270.61,211.73,269.91,212.19,269.2,212.65z M274.55,197.16c0.36-2.82,0.01-3.84-1.35-4.04c-2.9-0.43-3.57,0.09-4.04,3.25
		C270.96,196.63,272.75,196.89,274.55,197.16z M275.04,198.58c-2.45,0-4.15,0-5.84,0c-0.02,0.16-0.04,0.31-0.07,0.47
		c1.11,0.49,2.22,0.97,3.56,1.56c-1.42,0.69-2.5,1.22-3.58,1.74c0.08,0.13,0.16,0.27,0.25,0.4c1.71,0,3.41,0,5.12,0
		c0.02-0.16,0.03-0.32,0.05-0.47c-0.44-0.13-0.88-0.27-1.5-0.46c0.61-0.41,1.13-0.76,1.84-1.24c-0.68-0.45-1.14-0.76-1.61-1.07
		C273.71,199.27,274.12,199.06,275.04,198.58z M269.03,192.21c1.99,0,3.69,0,5.38,0c0.01-0.15,0.02-0.3,0.03-0.45
		c-0.67-0.18-1.35-0.36-2.02-0.54c-0.25-0.35-0.5-0.7-0.76-1.05c1.03-0.47,2.06-0.94,2.65-1.21c-1.15-0.22-2.12-0.54-3.09-0.53
		c-0.65,0.01-1.7,0.32-1.88,0.77C268.99,190.11,269.11,191.2,269.03,192.21z M274.61,183.9c-0.12-0.01-0.23-0.03-0.35-0.04
		c-0.32,0.9-0.64,1.81-0.96,2.71c-0.55-0.5-1.09-1.01-1.59-1.46c-0.32,0.46-0.67,0.96-1.01,1.46c-0.45-0.89-0.91-1.79-1.51-2.97
		c0,1.46,0,2.61,0,3.89c1.91,0,3.62,0,5.42,0C274.61,186.2,274.61,185.05,274.61,183.9z M271.81,173.39
		c-1.3,1.49-2.13,2.43-2.95,3.37c1.04,0.64,2.09,1.78,3.12,1.76c0.94-0.02,1.85-1.3,2.77-2.02
		C273.95,175.65,273.15,174.8,271.81,173.39z M269.12,205.46c0.01,0.23,0.01,0.47,0.02,0.7c1.75,0.63,3.5,1.26,5.43,1.95
		c-0.61-1.14-1.3-1.85-1.28-2.55c0.01-0.6,0.83-1.18,1.76-2.36C272.56,204.15,270.84,204.8,269.12,205.46z M273.64,213.62
		c-0.09,0.15-0.17,0.31-0.26,0.46c0,0.88,0.35,2.11-0.09,2.55c-0.48,0.49-2.26,0.6-2.46,0.26c-0.5-0.83-0.43-2.02-0.69-3.73
		c-0.43,1.39-1.24,2.66-0.9,3.22c0.53,0.85,1.84,1.62,2.84,1.63c0.86,0.01,2.1-0.92,2.47-1.75
		C274.83,215.64,273.99,214.52,273.64,213.62z"/>
	<path class="st18" d="M256.46,371.96c0,10.4,0.01,20.79,0.01,31.19c-3.23,0-6.46,0-9.83,0c0-10.4,0-20.62,0-31.19
		C249.86,371.96,253.16,371.96,256.46,371.96z M248.3,377.08c1.78,0,3.56,0,5.34,0c0-0.1,0-0.21,0-0.31
		c-0.74-0.23-1.49-0.46-2.51-0.78c1.07-0.89,1.86-1.55,2.65-2.21c-0.97-0.09-1.8,0.48-2.48,0.34
		C247.97,373.4,247.84,373.47,248.3,377.08z M251.16,381.85c-1.43,1.55-2.83,2.4-2.95,3.41c-0.11,0.83,1.14,2.43,2.06,2.67
		c1.76,0.47,3.47-0.55,3.5-2.48C253.79,384.48,252.41,383.49,251.16,381.85z M252.61,400.53c1.66-1.17,1.87-2.77,0.67-3.64
		c-2.81-2.04-2.28,2.09-4.15,2.63c0.08-1.13,0.14-2.05,0.21-2.97c-0.32,0-0.63,0.01-0.95,0.01c0.05,1.12-0.34,2.82,0.24,3.27
		c2.95,2.28,1.95-2.49,4.2-2.38C252.77,398.35,252.7,399.22,252.61,400.53z M253.7,392.17c-0.15-0.02-0.29-0.04-0.44-0.06
		c-0.23,0.9-0.46,1.81-0.83,3.28c-0.74-1-1.16-1.57-1.54-2.07c-0.44,0.56-0.84,1.06-1.45,1.82c-0.34-1.36-0.55-2.21-0.76-3.05
		c-0.15,0.03-0.31,0.06-0.46,0.09c0,1.13,0,2.27,0,3.52c1.94,0,3.73,0,5.48,0C253.7,394.42,253.7,393.29,253.7,392.17z
		 M248.36,381.57c0.04,0.45,0.08,0.9,0.13,1.34c1.69-0.47,3.42-0.85,5.04-1.5c0.22-0.09,0.11-2.13-0.2-2.24
		c-1.56-0.55-3.24-0.76-4.87-1.09c-0.05,0.35-0.1,0.7-0.15,1.05c0.97,0.05,1.96-0.03,2.89,0.2c0.61,0.15,1.11,0.75,1.65,1.15
		c-0.58,0.36-1.12,0.91-1.74,1.04C250.22,381.7,249.28,381.57,248.36,381.57z"/>
	<path class="st17" d="M330.42,573.58c-3.51,0-7.02,0-10.61,0c-0.15-0.57-0.36-0.97-0.36-1.37c0.01-17.39,0.04-34.77,0.07-52.16
		c3.58,0,7.16,0,10.9,0c0.06,0.65,0.14,1.15,0.14,1.66c0.01,16.68,0.01,33.35,0,50.03C330.56,572.35,330.47,572.96,330.42,573.58z
		 M326.19,567.38c0.2,2.24-1.41,2.38-2.71,1.83c-0.62-0.26-0.69-1.85-1.18-3.35c-0.26,1.11-0.92,2.81-0.65,2.98
		c1.11,0.7,2.58,1.37,3.8,1.21c1.67-0.23,2.13-1.63,1.21-3.22c-0.4-0.25-0.8-0.5-1.2-0.76c-0.09,0.12-0.18,0.25-0.27,0.37
		C325.53,566.76,325.86,567.07,326.19,567.38z M325.63,542.1c0.47-0.35,0.93-0.71,1.4-1.06c-0.12-0.16-0.24-0.31-0.36-0.47
		c-0.51,0.35-1.02,0.7-1.53,1.05c-1-0.25-2.66-0.98-2.87-0.67c-0.66,0.93-0.76,2.26-1.13,3.64c2.25,0,3.96,0,5.68,0
		c0.01-0.15,0.02-0.31,0.03-0.46c-0.72-0.21-1.45-0.41-2.43-0.69C324.96,542.84,325.3,542.47,325.63,542.1z M327.3,552.94
		c-0.89-0.55-1.44-0.9-2-1.25c0.63-0.23,1.12-0.41,2.08-0.77c-2.3,0-4.03,0-5.75,0c-0.03,0.14-0.05,0.29-0.08,0.43
		c1.07,0.51,2.15,1.03,3.42,1.64c-1.39,0.61-2.44,1.08-3.49,1.54c0.04,0.17,0.07,0.35,0.11,0.52c1.44,0.11,2.89,0.21,4.33,0.32
		c-0.01,0.15-0.01,0.3-0.02,0.45c-1.49,0.64-2.98,1.28-5.17,2.22c2.45,0.9,4.18,1.53,5.9,2.17c-0.76-1.43-1.93-2.17-0.16-3.72
		c1.07-0.95,0.66-2.36-1.59-2.14C325.76,553.84,326.36,553.5,327.3,552.94z M327.49,549.51c-0.52-1.56-0.58-3.29-1.35-3.7
		c-1.02-0.56-2.84-0.52-3.85,0.07c-0.75,0.43-0.75,2.16-1.18,3.63C323.37,549.51,325.01,549.51,327.49,549.51z M323.88,525.94
		c0.19-1.06,0.25-1.86,0.53-2.58c0.06-0.16,1.33-0.05,1.33,0c0.09,0.86,0.06,1.74,0.06,2.61c0.2,0.06,0.41,0.13,0.61,0.19
		c0.19-0.86,0.63-1.76,0.48-2.55c-0.11-0.58-1.23-1.54-1.5-1.42c-1.11,0.48-2.08,1.32-3.07,2c-0.07-0.25-0.25-0.87-0.42-1.49
		c-0.13,0.03-0.25,0.06-0.38,0.09c0,0.91,0,1.83,0,2.87C322.38,525.77,323.13,525.86,323.88,525.94z M324.15,525.81
		c-1.25,1.34-2.04,2.17-2.82,3c0.94,0.73,1.8,1.88,2.83,2.08c1.36,0.26,3.1-0.32,2.81-2.16
		C326.83,527.81,325.46,527.1,324.15,525.81z M326.54,561.52c-1.43,0-3.12,0-4.7,0c0.67,0.64,1.26,1.19,1.85,1.75
		c-0.64,0.63-1.29,1.27-1.98,1.95c1.71,0,3.4,0,4.94,0c-0.73-0.69-1.36-1.29-1.99-1.89C325.3,562.72,325.94,562.11,326.54,561.52z"
		/>
	<path class="st17" d="M554.08,267.79c-3.28,0-6.57,0-9.85,0c0-11.38,0-22.77,0-34.3c3.26,0,6.4,0,9.85,0
		C554.08,244.9,554.08,256.34,554.08,267.79z M547.42,260.37c0.87-0.29,1.88-0.39,2.57-0.91c0.59-0.44,1.15-1.37,1.14-2.08
		c-0.01-0.62-0.81-1.24-1.44-2.11c0.13,1.47,0.2,2.31,0.27,3.16c-0.92,0.07-2.3,0.54-2.65,0.13c-0.51-0.6-0.27-1.84-0.36-2.88
		c-2.88,1.24-0.2,3.48-0.68,5.15c0.5,0.22,1.01,0.44,1.7,0.74c-0.96,0.44-1.63,0.75-2.81,1.3c1.38,0.46,2.12,0.71,3.09,1.03
		c-0.66,0.22-1.07,0.35-1.48,0.5c-0.35,0.13-0.69,0.29-1.04,0.44c0.06,0.19,0.11,0.38,0.17,0.56c1.74-0.36,3.49-0.72,5.23-1.08
		c0-0.17-0.01-0.35-0.01-0.52c-0.83-0.35-1.66-0.69-2.52-1.05c0.88-0.37,1.69-0.71,2.51-1.05c-0.01-0.2-0.03-0.4-0.04-0.6
		C549.87,260.85,548.65,260.61,547.42,260.37z M550.06,248.78c0.15,0.06,0.29,0.11,0.44,0.17c0.24-0.65,0.63-1.28,0.69-1.95
		c0.11-1.38,0.05-2.77,0.05-4.16c0.01-1.69-0.71-2.67-2.51-2.68c-1.52-0.01-2.93,0.18-3.04,2.09c-0.1,1.65-0.11,3.32,0.02,4.96
		c0.05,0.57,0.58,1.43,1.03,1.54c0.45,0.11,1.23-0.45,1.61-0.92c0.5-0.62,0.75-1.44,1.11-2.18c0.2,0.05,0.4,0.1,0.61,0.15
		C550.06,246.8,550.06,247.79,550.06,248.78z M545.43,239.12c2.13,0,3.83,0,5.96,0c-0.29-1.34-0.24-3.22-0.83-3.45
		c-1.26-0.5-3-0.49-4.26,0.01C545.69,235.93,545.73,237.78,545.43,239.12z M548.86,254.44c0.65-0.69,1.38-1.47,2.11-2.25
		c-0.88,0.87-1.75,1.73-2.63,2.6c-0.13-1.25-0.26-2.5-0.39-3.74c0.33-0.21,0.66-0.42,0.98-0.64c-0.76,0.69-1.52,1.38-2.21,2
		C547.3,252.96,548.06,253.69,548.86,254.44z"/>
	<path class="st18" d="M88.92,208.34c-3.59,0-7.18,0-10.92,0c0-17.81,0-35.47,0-53.49c3.62,0,7.27,0,10.92,0
		C88.92,172.68,88.92,190.51,88.92,208.34z M85.1,190.04c0,0.21,0.01,0.41,0.01,0.62c-1.62,0.67-3.25,1.34-4.87,2.01
		c0.02,0.21,0.04,0.41,0.06,0.62c1.75,0.64,3.51,1.27,5.26,1.91c-1.32-1.84-1.21-1.78-0.21-3.77c0.23-0.46,1.41-2.2-0.78-2.26
		c-0.1,0-0.21-0.11-0.41-0.23c0.62-0.39,1.16-0.72,1.73-1.07c-2.43-2.71-3.26-2.95-5.47-1.56c1.14,0.45,2.19,0.86,3.5,1.38
		c-1.5,0.72-2.57,1.23-3.64,1.74c0.07,0.2,0.14,0.41,0.2,0.61C82.03,190.04,83.56,190.04,85.1,190.04z M86.4,184.43
		c-0.62-1.66-0.76-3.49-1.58-3.89c-1.06-0.52-2.93-0.29-3.97,0.38c-0.69,0.44-0.52,2.22-0.76,3.51
		C82.29,184.43,83.92,184.43,86.4,184.43z M85.7,179.49c-0.01-0.21-0.01-0.42-0.02-0.63c-0.7-0.14-1.39-0.29-2.09-0.43
		c-0.22-0.32-0.43-0.63-0.65-0.95c0.97-0.56,1.94-1.12,3.41-1.97c-1.6,0.3-2.42,0.56-3.26,0.59c-0.75,0.03-2.06-0.46-2.18-0.23
		c-0.45,0.87-0.75,1.98-0.6,2.92c0.06,0.4,1.37,0.76,2.15,0.83C83.52,179.73,84.62,179.55,85.7,179.49z M85.79,170.93
		c-0.16,0.01-0.32,0.01-0.47,0.02c-0.18,0.94-0.36,1.88-0.66,3.44c-0.83-1.09-1.28-1.67-1.64-2.15c-0.49,0.6-0.92,1.12-1.72,2.1
		c-0.18-1.63-0.28-2.52-0.38-3.41c-0.16,0-0.32,0.01-0.48,0.01c0,1.16,0,2.31,0,3.55c1.87,0,3.63,0,5.35,0
		C85.79,173.16,85.79,172.04,85.79,170.93z M83.19,197.66c-1.1,1.06-1.87,1.8-2.59,2.5c1.61,0,3.33,0,5.16,0
		c-0.9-0.71-1.55-1.23-2.21-1.75c0.69-0.67,1.37-1.34,2.1-2.04c-1.74,0-3.46,0-5.18,0c-0.02,0.14-0.04,0.29-0.06,0.43
		C81.08,197,81.76,197.21,83.19,197.66z M83.3,166.59c1.09-1.25,2.33-2.03,2.48-2.98c0.28-1.82-1.37-1.93-2.7-1.99
		c-1.58-0.07-3.08,0.57-2.88,2.22C80.31,164.72,81.9,165.41,83.3,166.59z M80.94,160.84c0.22-0.05,0.43-0.1,0.65-0.14
		c0-0.81,0-1.63,0-2.44c0.78,0.46,1.6,0.87,2.34,1.39c0.57,0.4,1.06,0.93,1.86,1.64c0-1.73,0-2.94,0-4.94
		c-0.57,1.25-0.83,1.81-1.09,2.37c-0.03-0.26-0.06-0.52-0.09-0.77c-1.36,0-2.72,0-4.08,0C80.67,158.91,80.8,159.88,80.94,160.84z
		 M84.86,200.77c-0.17,0.15-0.33,0.29-0.5,0.44c0.1,0.85,0.21,1.7,0.31,2.55c-0.99,0.05-1.99,0.1-2.98,0.15c0-0.95,0-1.89,0-2.84
		c-0.69,0.56-1.64,1.79-1.36,2.22c0.57,0.87,1.8,1.78,2.76,1.79c0.93,0.01,2.15-0.92,2.69-1.78
		C86.07,202.83,85.2,201.64,84.86,200.77z"/>
	<path class="st17" d="M419.85,182.96c-0.02,10.58-0.03,21.17-0.05,31.75c-3.15,0-6.31,0-9.71,0c0-10.51,0-20.93,0-31.75
		C413.29,182.96,416.57,182.96,419.85,182.96z M415.71,206.41c-1.43,0.32-2.86,0.64-4.29,0.96c0.19,0.33,0.37,0.67,0.56,1
		c0.04,1.15-0.2,3.17,0.18,3.29c1.23,0.4,2.87,0.52,3.99-0.02c1.52-0.73,0.99-2.15,0.04-3.28c-0.18-0.31-0.35-0.61-0.53-0.92
		c0.21-0.19,0.41-0.37,0.62-0.56c0.06-0.92,0.36-2.56,0.13-2.64c-1.5-0.52-3.12-0.7-4.7-0.99c-0.02,0.32-0.04,0.64-0.06,0.96
		c0.92,0,1.85-0.05,2.77,0.01C415.82,204.34,416.63,204.88,415.71,206.41z M411.57,196.83c0.13,1.15,0.27,2.3,0.4,3.45
		c1.23-0.86,2.46-1.72,3.84-2.68c0,0.83,0,1.78,0,3.11c1.51-1.57,1.56-2.81,0.37-4.14c0.29-0.46,0.58-0.93,1.24-1.97
		c-1.82,0-3.09,0.06-4.36-0.01C411.23,194.49,410.97,195.34,411.57,196.83z M417.33,190.07c-2.3,0-4.04,0-5.78,0
		c0,0.16-0.01,0.31-0.01,0.47c0.89,0.14,1.77,0.28,2.94,0.47c-1.21,0.94-2.22,1.72-3.67,2.84c2.49,0,4.22,0,5.95,0
		c0.01-0.17,0.03-0.34,0.04-0.51c-0.85-0.16-1.7-0.31-2.85-0.53C415.08,191.9,416.03,191.13,417.33,190.07z M416.07,187.53
		c-0.47,0.48-0.93,0.96-1.4,1.44c-0.22-0.97-0.44-1.94-0.68-3c-0.48,0.93-0.75,1.46-1.31,2.53c-0.42-1.55-0.67-2.46-0.92-3.38
		c-0.09,0.02-0.17,0.04-0.26,0.06c0,1.17,0,2.33,0,3.42c1.99,0,3.78,0,5.67,0c-0.11-1.33-0.2-2.4-0.29-3.47
		c-0.21,0.02-0.42,0.04-0.63,0.06C416.2,185.98,416.14,186.76,416.07,187.53z"/>
	<path class="st18" d="M83.48,406.3c-3.27,0-6.41,0-9.7,0c0-17.81,0-35.51,0-53.37c3.24,0,6.36,0,9.7,0
		C83.48,370.64,83.48,388.34,83.48,406.3z M81.04,397.93c-0.76-0.71-1.52-1.42-2.27-2.13c0.7-0.52,1.41-1.03,2.37-1.74
		c-2.01,0-3.76,0-5.52,0c-0.01,0.17-0.01,0.33-0.02,0.5c0.72,0.14,1.44,0.28,2.98,0.58c-1.25,1.27-2.05,2.08-2.84,2.88
		c0.18,0.27,0.35,0.55,0.53,0.82c-1.13,1.11-1.43,2.58-0.03,3.3c1.11,0.57,2.8,0.46,4.04,0.05c0.4-0.13,0.18-2.15,0.25-3.31
		C80.69,398.57,80.87,398.25,81.04,397.93z M75.67,381.97c1.75,0,3.53,0,5.31,0c0-1.18,0-2.19,0-3.24c-0.96,0-1.73,0.07-2.5-0.01
		C75.23,378.39,75.1,378.53,75.67,381.97z M79.76,384.38c0.46-0.37,0.83-0.67,1.33-1.06c-2.03,0-3.74,0-5.46,0
		c-0.02,0.16-0.04,0.33-0.07,0.49c1.1,0.51,2.19,1.01,3.44,1.58c-1.34,0.68-2.43,1.23-3.51,1.78c0.07,0.14,0.13,0.29,0.2,0.43
		c1.73,0,3.46,0,5.19,0c0.03-0.14,0.05-0.28,0.08-0.42c-0.42-0.23-0.84-0.45-1.26-0.68c0.49-0.38,0.94-0.72,1.51-1.16
		C80.59,384.92,80.16,384.64,79.76,384.38z M80.83,377.17c0.05-0.13,0.11-0.26,0.16-0.39c-0.71-0.32-1.42-0.64-2.34-1.05
		c0.94-0.87,1.68-1.56,2.42-2.25c-1.04-0.01-1.8,0.38-2.57,0.42c-0.81,0.04-2.28-0.53-2.34-0.38c-0.45,1.1-0.61,2.32-0.9,3.65
		C77.5,377.17,79.16,377.17,80.83,377.17z M76.04,367.98c-1.46,4.42-0.64,4.98,4.91,4.18c0-1.21,0-2.41,0-3.61
		c-0.13,0-0.26-0.01-0.38-0.01c-0.19,0.94-0.37,1.88-0.67,3.4c-0.84-1.06-1.29-1.62-1.71-2.15c-0.41,0.64-0.77,1.19-1.53,2.38
		C76.4,370.41,76.26,369.51,76.04,367.98z M79.71,358.53c0.26,0.06,0.53,0.12,0.79,0.19c0.14-1.02,0.72-2.3,0.3-2.98
		c-0.38-0.61-1.81-0.68-2.8-0.76c-0.83-0.07-1.69,0.19-2.69,0.32c0.07,0.92,0.14,1.82,0.21,2.75c1.38-0.94,2.52-1.72,4.19-2.86
		C79.71,356.54,79.71,357.54,79.71,358.53z M74.74,390.56c2.51,0.98,4.26,1.66,6.02,2.34c-1.99-1.65-1.14-3.06-0.07-4.62
		C78.97,388.94,77.25,389.6,74.74,390.56z M78.21,364.28c1.25-1.17,2.64-1.85,2.83-2.77c0.36-1.79-1.28-2.54-2.68-2.24
		c-1.14,0.25-2.08,1.4-3.11,2.15C76.1,362.24,76.94,363.05,78.21,364.28z"/>
	<path class="st19" d="M100.48,559.1c-0.26,0.34-0.52,0.68-0.94,1.23c0.93,0.26,1.7,0.48,3.19,0.9c-1.87,0.29-3.06,0.47-4.47,0.68
		c4.01,2.2,4.01,2.2,3.7,4.53c-1.76,0-3.55,0-5.84,0c0.41-1.7,0.74-3.06,1.07-4.41c-0.11,0.03-0.22,0.06-0.33,0.09
		c0-1.36-0.48-3,0.11-4.02c0.91-1.59,2.04-0.14,2.98,0.53C100.14,558.79,100.31,558.95,100.48,559.1z"/>
	<path class="st19" d="M96.51,540.41c1.93-0.12,3.78-2.27,5.5,0c-1.61,0.83-1.88,2.37-0.93,3.62c0.53,0.7,0.58,1.77,0.84,2.68
		c-1.21,0.31-2.44,0.89-3.63,0.82c-0.67-0.04-1.29-1.13-1.93-1.75c0.7-0.68,1.37-1.4,2.13-2.01c0.3-0.25,0.79-0.28,1.45-0.48
		C98.66,542.22,97.58,541.32,96.51,540.41z M99.39,544.02c-0.78,0.68-1.35,1.19-1.93,1.7c0.59,0.41,1.19,1.17,1.75,1.13
		c0.7-0.05,1.35-0.75,2.02-1.17C100.7,545.21,100.17,544.73,99.39,544.02z"/>
	<path class="st20" d="M102.09,568.07c-0.52,0.15-1.05,0.3-1.68,0.48c0.57,0.36,1.14,0.71,1.44,0.9c-0.13,0.82-0.23,1.47-0.38,2.46
		c-1.25,0-3.02,0-4.78,0c-0.08-0.14-0.15-0.28-0.23-0.42c1.13-0.55,2.26-1.09,3.56-1.72c-1.33-0.6-2.44-1.11-3.56-1.61
		c0.04-0.17,0.09-0.35,0.13-0.52c1.81,0,3.62,0,5.43,0C102.06,567.77,102.07,567.92,102.09,568.07z"/>
	<path class="st20" d="M101.85,577.3c-1.81-0.68-3.61-1.35-6.21-2.33c2.58-1,4.38-1.69,6.18-2.38
		C100,574.3,100.1,575.66,101.85,577.3z"/>
	<path class="st19" d="M98.47,582.92c-0.67-0.21-1.34-0.42-2.08-0.65c1.02-0.78,1.74-1.33,2.45-1.87c-0.61-0.64-1.23-1.27-1.85-1.92
		c1.48,0,3.21,0,4.8,0c-0.75,0.6-1.59,1.27-2.43,1.94c0.11,0.24,0.22,0.49,0.33,0.73c0.8,0.18,1.59,0.36,2.71,0.61
		c-0.53,0.56-0.89,0.94-1.24,1.32c-0.19,0.2-0.38,0.41-0.57,0.61C99.89,583.43,99.18,583.18,98.47,582.92z"/>
	<path class="st20" d="M100.6,583.69c0.19-0.2,0.38-0.41,0.57-0.61c1.36,1.1,1.52,2.34,0.23,3.56c-1.15,1.09-3.59,0.82-4.51-0.4
		c-0.99-1.3-0.55-2.35,1.08-2.57c-0.01,0.77-0.01,1.54-0.02,2.31c0.91,0,1.81,0.01,2.72,0.01
		C100.65,585.22,100.62,584.46,100.6,583.69z"/>
	<path class="st8" d="M100.6,583.69c0.03,0.77,0.05,1.53,0.08,2.3c-0.91,0-1.81-0.01-2.72-0.01c0.01-0.77,0.01-1.54,0.02-2.31
		c0,0-0.03,0.05-0.03,0.05c0.19-0.28,0.38-0.57,0.56-0.85c0,0-0.03,0.05-0.03,0.05C99.18,583.18,99.89,583.43,100.6,583.69z"/>
	<path class="st19" d="M96.6,555.91c1.25-0.58,2-0.93,2.88-1.34c0.13,0.15,0.57,0.64,1.01,1.13c0.45-0.88,0.89-1.76,1.54-3.02
		c0,1.49,0,2.61,0,3.92C100.27,556.38,98.32,557.32,96.6,555.91z"/>
	<path class="st19" d="M99.97,558.64c0.59-0.4,1.17-0.8,1.76-1.2c0.13,0.18,0.27,0.36,0.4,0.54c-0.55,0.37-1.09,0.75-1.64,1.12
		C100.31,558.95,100.14,558.79,99.97,558.64z"/>
	<path class="st19" d="M98.5,582.87c-0.19,0.28-0.38,0.57-0.56,0.85C98.13,583.44,98.32,583.16,98.5,582.87z"/>
	<path class="st19" d="M274.55,197.16c-1.8-0.26-3.6-0.53-5.39-0.79c0.47-3.16,1.14-3.68,4.04-3.25
		C274.56,193.32,274.91,194.34,274.55,197.16z"/>
	<path class="st19" d="M275.04,198.58c-0.92,0.48-1.32,0.69-1.78,0.93c0.47,0.31,0.93,0.62,1.61,1.07
		c-0.71,0.48-1.23,0.83-1.84,1.24c0.62,0.19,1.06,0.32,1.5,0.46c-0.02,0.16-0.03,0.32-0.05,0.47c-1.71,0-3.41,0-5.12,0
		c-0.08-0.13-0.16-0.27-0.25-0.4c1.08-0.52,2.15-1.05,3.58-1.74c-1.34-0.59-2.45-1.07-3.56-1.56c0.02-0.16,0.04-0.31,0.07-0.47
		C270.89,198.58,272.59,198.58,275.04,198.58z"/>
	<path class="st19" d="M269.03,192.21c0.08-1.01-0.04-2.1,0.31-3c0.18-0.45,1.22-0.77,1.88-0.77c0.97-0.01,1.94,0.31,3.09,0.53
		c-0.59,0.27-1.62,0.74-2.65,1.21c0.25,0.35,0.5,0.7,0.76,1.05c0.67,0.18,1.35,0.36,2.02,0.54c-0.01,0.15-0.02,0.3-0.03,0.45
		C272.72,192.21,271.03,192.21,269.03,192.21z"/>
	<path class="st19" d="M274.61,183.9c0,1.15,0,2.3,0,3.6c-1.8,0-3.51,0-5.42,0c0-1.28,0-2.43,0-3.89c0.6,1.18,1.06,2.08,1.51,2.97
		c0.35-0.5,0.69-1,1.01-1.46c0.49,0.46,1.04,0.96,1.59,1.46c0.32-0.9,0.64-1.81,0.96-2.71C274.38,183.88,274.5,183.89,274.61,183.9z
		"/>
	<path class="st20" d="M271.81,173.39c1.33,1.41,2.14,2.26,2.94,3.11c-0.92,0.72-1.83,2-2.77,2.02c-1.03,0.02-2.08-1.12-3.12-1.76
		C269.69,175.82,270.51,174.88,271.81,173.39z M271.88,174.98c-0.74,0.63-1.32,1.13-1.91,1.62c0.61,0.35,1.24,1.01,1.83,0.97
		c0.68-0.04,1.33-0.69,2-1.08C273.25,176.06,272.7,175.62,271.88,174.98z"/>
	<path class="st19" d="M269.12,205.46c1.72-0.66,3.44-1.32,5.92-2.26c-0.93,1.19-1.74,1.77-1.76,2.36c-0.01,0.7,0.67,1.42,1.28,2.55
		c-1.93-0.69-3.68-1.32-5.43-1.95C269.13,205.93,269.13,205.7,269.12,205.46z"/>
	<path class="st19" d="M273.64,213.62c0.34,0.9,1.19,2.02,0.91,2.64c-0.37,0.83-1.61,1.76-2.47,1.75c-0.99-0.01-2.31-0.78-2.84-1.63
		c-0.34-0.55,0.47-1.83,0.9-3.22c0.26,1.72,0.18,2.9,0.69,3.73c0.2,0.34,1.98,0.22,2.46-0.26c0.44-0.44,0.09-1.67,0.09-2.55
		C273.47,213.93,273.56,213.78,273.64,213.62z"/>
	<path class="st20" d="M269.2,212.65c0.71-0.46,1.41-0.91,2.12-1.37c-0.58-0.63-1.17-1.25-1.87-2.01c1.55,0,3.23,0,4.83,0
		c-0.62,0.71-1.27,1.44-1.91,2.17c0.63,0.44,1.26,0.88,1.7,1.19c-1.44,0-3.14,0-4.84,0L269.2,212.65z"/>
	<polygon class="st20" points="269.22,212.63 269.16,212.72 269.2,212.65 	"/>
	<path class="st19" d="M248.3,377.08c-0.46-3.61-0.33-3.68,3-2.96c0.68,0.14,1.5-0.42,2.48-0.34c-0.79,0.66-1.58,1.32-2.65,2.21
		c1.03,0.32,1.77,0.55,2.51,0.78c0,0.1,0,0.21,0,0.31C251.86,377.08,250.08,377.08,248.3,377.08z"/>
	<path class="st20" d="M251.16,381.85c1.25,1.64,2.62,2.63,2.61,3.6c-0.03,1.93-1.74,2.95-3.5,2.48c-0.92-0.25-2.17-1.84-2.06-2.67
		C248.34,384.25,249.74,383.4,251.16,381.85z M251.14,383.37c-0.86,0.83-1.41,1.35-1.97,1.88c0.58,0.5,1.15,1.38,1.74,1.4
		c0.64,0.02,1.3-0.77,1.95-1.21C252.38,384.86,251.89,384.27,251.14,383.37z"/>
	<path class="st20" d="M252.61,400.53c0.1-1.31,0.16-2.18,0.22-3.08c-2.25-0.11-1.25,4.66-4.2,2.38c-0.57-0.45-0.18-2.15-0.24-3.27
		c0.32,0,0.63-0.01,0.95-0.01c-0.07,0.92-0.13,1.85-0.21,2.97c1.87-0.54,1.34-4.67,4.15-2.63
		C254.48,397.75,254.27,399.36,252.61,400.53z"/>
	<path class="st20" d="M253.7,392.17c0,1.13,0,2.26,0,3.54c-1.75,0-3.54,0-5.48,0c0-1.25,0-2.38,0-3.52
		c0.15-0.03,0.31-0.06,0.46-0.09c0.21,0.84,0.42,1.68,0.76,3.05c0.6-0.76,1.01-1.27,1.45-1.82c0.37,0.5,0.79,1.07,1.54,2.07
		c0.37-1.48,0.6-2.38,0.83-3.28C253.41,392.12,253.56,392.14,253.7,392.17z"/>
	<path class="st20" d="M248.36,381.57c0.92,0,1.86,0.13,2.74-0.05c0.62-0.13,1.16-0.68,1.74-1.04c-0.55-0.4-1.05-1-1.65-1.15
		c-0.92-0.23-1.92-0.15-2.89-0.2c0.05-0.35,0.1-0.7,0.15-1.05c1.64,0.33,3.31,0.53,4.87,1.09c0.32,0.11,0.42,2.15,0.2,2.24
		c-1.62,0.65-3.34,1.04-5.04,1.5C248.45,382.46,248.41,382.02,248.36,381.57z"/>
	<path class="st19" d="M327.3,552.94c-0.95,0.55-1.54,0.9-2.42,1.41c2.26-0.22,2.67,1.2,1.59,2.14c-1.77,1.56-0.6,2.29,0.16,3.72
		c-1.73-0.64-3.46-1.27-5.9-2.17c2.2-0.94,3.68-1.58,5.17-2.22c0.01-0.15,0.01-0.3,0.02-0.45c-1.44-0.11-2.89-0.21-4.33-0.32
		c-0.04-0.17-0.07-0.35-0.11-0.52c1.05-0.46,2.1-0.93,3.49-1.54c-1.27-0.61-2.34-1.12-3.42-1.64c0.03-0.14,0.05-0.29,0.08-0.43
		c1.72,0,3.45,0,5.75,0c-0.97,0.36-1.45,0.54-2.08,0.77C325.86,552.04,326.42,552.39,327.3,552.94z"/>
	<path class="st19" d="M327.49,549.51c-2.49,0-4.12,0-6.38,0c0.43-1.48,0.44-3.2,1.18-3.63c1.01-0.59,2.83-0.62,3.85-0.07
		C326.92,546.22,326.98,547.95,327.49,549.51z"/>
	<path class="st19" d="M325.63,542.11c-0.34,0.37-0.67,0.74-1.22,1.34c0.98,0.28,1.7,0.49,2.43,0.69c-0.01,0.15-0.02,0.31-0.03,0.46
		c-1.72,0-3.43,0-5.68,0c0.38-1.39,0.48-2.71,1.13-3.64c0.21-0.3,1.87,0.42,2.87,0.67C325.3,541.78,325.47,541.94,325.63,542.11z"/>
	<path class="st19" d="M323.88,525.94c-0.75-0.08-1.5-0.17-2.35-0.26c0-1.04,0-1.96,0-2.87c0.13-0.03,0.25-0.06,0.38-0.09
		c0.18,0.62,0.35,1.24,0.42,1.49c0.99-0.69,1.95-1.52,3.07-2c0.28-0.12,1.39,0.84,1.5,1.42c0.15,0.79-0.29,1.69-0.48,2.55
		c-0.2-0.06-0.41-0.13-0.61-0.19c0-0.87,0.03-1.75-0.06-2.61c-0.01-0.06-1.27-0.16-1.33,0
		C324.13,524.08,324.07,524.89,323.88,525.94z"/>
	<path class="st20" d="M324.15,525.81c1.31,1.29,2.68,2.01,2.82,2.91c0.29,1.84-1.45,2.42-2.81,2.16c-1.04-0.2-1.9-1.35-2.83-2.08
		C322.11,527.97,322.9,527.14,324.15,525.81z M322.46,527.91c1.44,2.7,2.25,2.68,4.13,0.18
		C324.94,528.02,323.7,527.97,322.46,527.91z"/>
	<path class="st19" d="M326.54,561.52c-0.61,0.59-1.24,1.2-1.87,1.81c0.63,0.6,1.26,1.2,1.99,1.89c-1.54,0-3.23,0-4.94,0
		c0.69-0.68,1.34-1.32,1.98-1.95c-0.59-0.56-1.18-1.11-1.85-1.75C323.43,561.52,325.12,561.52,326.54,561.52z"/>
	<path class="st19" d="M326.66,566.83c0.92,1.58,0.47,2.99-1.21,3.22c-1.22,0.17-2.69-0.51-3.8-1.21c-0.28-0.17,0.39-1.87,0.65-2.98
		c0.49,1.5,0.56,3.09,1.18,3.35c1.3,0.55,2.9,0.42,2.71-1.83C326.34,567.2,326.5,567.01,326.66,566.83z"/>
	<path class="st19" d="M325.14,541.62c0.51-0.35,1.02-0.7,1.53-1.05c0.12,0.16,0.24,0.31,0.36,0.47c-0.47,0.35-0.93,0.71-1.4,1.06
		C325.47,541.94,325.3,541.78,325.14,541.62z"/>
	<path class="st19" d="M326.19,567.38c-0.33-0.31-0.66-0.62-0.99-0.94c0.09-0.12,0.18-0.25,0.27-0.37c0.4,0.25,0.8,0.5,1.2,0.76
		C326.5,567.01,326.34,567.2,326.19,567.38z"/>
	<path class="st19" d="M550.06,248.78c0-0.99,0-1.98,0-2.97c-0.2-0.05-0.4-0.1-0.61-0.15c-0.36,0.74-0.61,1.56-1.11,2.18
		c-0.38,0.47-1.16,1.02-1.61,0.92c-0.45-0.11-0.98-0.97-1.03-1.54c-0.14-1.64-0.12-3.31-0.02-4.96c0.11-1.91,1.52-2.1,3.04-2.09
		c1.8,0.01,2.52,0.99,2.51,2.68c0,1.39,0.06,2.78-0.05,4.16c-0.05,0.66-0.45,1.3-0.69,1.95
		C550.35,248.89,550.21,248.84,550.06,248.78z M550.09,243.26c0.19-0.29,0.38-0.58,0.57-0.87c-0.85-0.46-1.69-1.23-2.56-1.28
		c-0.58-0.03-1.21,0.98-1.82,1.52c0.16,0.21,0.32,0.41,0.49,0.62C547.87,243.26,548.98,243.26,550.09,243.26z M546.66,247.51
		c0.22,0.07,0.43,0.15,0.65,0.22c0.55-1.08,1.09-2.15,1.76-3.47C546.03,244.22,546.9,246.2,546.66,247.51z"/>
	<path class="st19" d="M545.43,239.12c0.3-1.34,0.27-3.19,0.87-3.44c1.26-0.51,2.99-0.51,4.26-0.01c0.59,0.23,0.54,2.11,0.83,3.45
		C549.26,239.12,547.56,239.12,545.43,239.12z"/>
	<path class="st19" d="M547.42,260.37c1.22,0.24,2.45,0.49,3.67,0.73c0.01,0.2,0.03,0.4,0.04,0.6c-0.82,0.34-1.64,0.68-2.51,1.05
		c0.86,0.36,1.69,0.7,2.52,1.05c0,0.17,0.01,0.35,0.01,0.52c-1.74,0.36-3.49,0.72-5.23,1.08c-0.06-0.19-0.11-0.38-0.17-0.56
		c0.35-0.15,0.69-0.31,1.04-0.44c0.4-0.15,0.82-0.28,1.48-0.5c-0.97-0.32-1.72-0.57-3.09-1.03c1.18-0.55,1.85-0.85,2.81-1.3
		c-0.69-0.3-1.2-0.52-1.7-0.74C546.66,260.67,547.04,260.52,547.42,260.37z"/>
	<path class="st20" d="M547.42,260.37c-0.38,0.15-0.76,0.31-1.14,0.46c0.49-1.67-2.2-3.9,0.68-5.15c0.09,1.04-0.15,2.27,0.36,2.88
		c0.34,0.41,1.73-0.05,2.65-0.13c-0.07-0.84-0.15-1.69-0.27-3.16c0.63,0.87,1.44,1.49,1.44,2.11c0.01,0.71-0.55,1.63-1.14,2.08
		C549.3,259.97,548.29,260.08,547.42,260.37z"/>
	<path class="st20" d="M548.86,254.44c-0.8-0.76-1.56-1.48-2.13-2.03c0.69-0.62,1.45-1.31,2.21-2c-0.33,0.21-0.66,0.42-0.98,0.64
		c0.13,1.25,0.26,2.5,0.39,3.74c0.88-0.87,1.75-1.73,2.63-2.6C550.24,252.97,549.51,253.75,548.86,254.44z"/>
	<path class="st19" d="M85.1,190.04c-1.54,0-3.07,0-4.61,0c-0.07-0.2-0.14-0.41-0.2-0.61c1.07-0.51,2.14-1.02,3.64-1.74
		c-1.31-0.52-2.36-0.93-3.5-1.38c2.22-1.39,3.04-1.15,5.47,1.56c-0.57,0.35-1.11,0.69-1.73,1.07c0.2,0.12,0.3,0.23,0.41,0.23
		c2.18,0.06,1.01,1.79,0.78,2.26c-1,1.99-1.11,1.93,0.21,3.77c-1.75-0.64-3.51-1.27-5.26-1.91c-0.02-0.21-0.04-0.41-0.06-0.62
		c1.62-0.67,3.25-1.34,4.87-2.01C85.11,190.45,85.1,190.25,85.1,190.04z"/>
	<path class="st19" d="M86.4,184.43c-2.48,0-4.11,0-6.31,0c0.24-1.3,0.07-3.07,0.76-3.51c1.04-0.67,2.91-0.9,3.97-0.38
		C85.65,180.94,85.78,182.77,86.4,184.43z"/>
	<path class="st19" d="M85.7,179.49c-1.08,0.06-2.17,0.24-3.24,0.14c-0.77-0.08-2.08-0.44-2.15-0.83c-0.15-0.94,0.16-2.05,0.6-2.92
		c0.12-0.23,1.43,0.26,2.18,0.23c0.83-0.03,1.66-0.29,3.26-0.59c-1.47,0.85-2.44,1.41-3.41,1.97c0.22,0.32,0.43,0.63,0.65,0.95
		c0.7,0.14,1.39,0.29,2.09,0.43C85.69,179.07,85.69,179.28,85.7,179.49z"/>
	<path class="st19" d="M85.79,170.93c0,1.11,0,2.23,0,3.56c-1.72,0-3.48,0-5.35,0c0-1.23,0-2.39,0-3.55c0.16,0,0.32-0.01,0.48-0.01
		c0.1,0.89,0.2,1.78,0.38,3.41c0.8-0.98,1.23-1.5,1.72-2.1c0.36,0.47,0.8,1.05,1.64,2.15c0.3-1.56,0.48-2.5,0.66-3.44
		C85.47,170.94,85.63,170.94,85.79,170.93z"/>
	<path class="st20" d="M83.19,197.66c-1.43-0.45-2.1-0.65-2.78-0.86c0.02-0.14,0.04-0.29,0.06-0.43c1.72,0,3.44,0,5.18,0
		c-0.73,0.71-1.41,1.38-2.1,2.04c0.66,0.52,1.31,1.04,2.21,1.75c-1.83,0-3.55,0-5.16,0C81.32,199.46,82.09,198.72,83.19,197.66z"/>
	<path class="st19" d="M83.3,166.59c-1.4-1.17-2.99-1.87-3.1-2.75c-0.21-1.65,1.3-2.3,2.88-2.22c1.34,0.06,2.99,0.18,2.7,1.99
		C85.63,164.56,84.39,165.34,83.3,166.59z M83.12,165.37c0.8-0.75,1.36-1.27,1.91-1.79c-0.61-0.39-1.25-1.11-1.84-1.07
		c-0.71,0.04-1.39,0.72-2.08,1.12C81.7,164.13,82.28,164.64,83.12,165.37z"/>
	<path class="st19" d="M80.94,160.84c-0.14-0.96-0.28-1.93-0.41-2.89c1.36,0,2.72,0,4.08,0c0.03,0.26,0.06,0.52,0.09,0.77
		c0.26-0.56,0.52-1.12,1.09-2.37c0,2,0,3.2,0,4.94c-0.8-0.72-1.28-1.25-1.86-1.64c-0.74-0.52-1.56-0.93-2.34-1.39
		c0,0.81,0,1.63,0,2.44C81.37,160.74,81.16,160.79,80.94,160.84z"/>
	<path class="st20" d="M84.86,200.77c0.34,0.87,1.21,2.06,0.92,2.53c-0.54,0.86-1.76,1.79-2.69,1.78c-0.97-0.01-2.19-0.92-2.76-1.79
		c-0.28-0.43,0.67-1.66,1.36-2.22c0,0.95,0,1.89,0,2.84c0.99-0.05,1.99-0.1,2.98-0.15c-0.1-0.85-0.21-1.7-0.31-2.55
		C84.53,201.07,84.69,200.92,84.86,200.77z"/>
	<path class="st20" d="M417.33,190.07c-1.3,1.06-2.26,1.83-3.39,2.74c1.15,0.21,2,0.37,2.85,0.53c-0.01,0.17-0.03,0.34-0.04,0.51
		c-1.73,0-3.46,0-5.95,0c1.45-1.12,2.46-1.9,3.67-2.84c-1.17-0.19-2.05-0.33-2.94-0.47c0-0.16,0.01-0.31,0.01-0.47
		C413.29,190.07,415.03,190.07,417.33,190.07z"/>
	<path class="st11" d="M411.57,196.83c-0.6-1.49-0.34-2.34,1.49-2.24c1.26,0.07,2.54,0.01,4.36,0.01c-0.66,1.04-0.95,1.51-1.24,1.97
		c-1.23,0.87-2.46,1.73-4.02,2.83c0.1-0.72,0.26-1.38,0.24-2.04C412.4,197.18,411.86,197.01,411.57,196.83z"/>
	<path class="st13" d="M415.66,207.46c0.18,0.31,0.35,0.61,0.53,0.92c-0.21,0.26-0.56,0.5-0.6,0.77c-0.08,0.63,0.16,1.79-0.03,1.85
		c-0.82,0.27-1.79,0.42-2.61,0.21c-0.27-0.07-0.2-1.34-0.38-2.04c-0.07-0.29-0.39-0.53-0.6-0.79c-0.19-0.33-0.37-0.67-0.56-1
		C412.83,207.4,414.25,207.43,415.66,207.46z"/>
	<path class="st19" d="M416.07,187.53c0.06-0.78,0.12-1.55,0.19-2.33c0.21-0.02,0.42-0.04,0.63-0.06c0.09,1.07,0.18,2.15,0.29,3.47
		c-1.9,0-3.68,0-5.67,0c0-1.09,0-2.26,0-3.42c0.09-0.02,0.17-0.04,0.26-0.06c0.25,0.91,0.49,1.82,0.92,3.38
		c0.56-1.08,0.83-1.6,1.31-2.53c0.24,1.06,0.46,2.03,0.68,3C415.14,188.49,415.61,188.01,416.07,187.53z"/>
	<path class="st19" d="M411.57,196.83c0.29,0.18,0.83,0.35,0.83,0.53c0.02,0.66-0.14,1.32-0.24,2.04c1.56-1.1,2.79-1.96,4.02-2.83
		c1.19,1.33,1.14,2.57-0.37,4.14c0-1.33,0-2.28,0-3.11c-1.38,0.97-2.61,1.82-3.84,2.68C411.84,199.13,411.7,197.98,411.57,196.83z"
		/>
	<path class="st19" d="M411.98,208.38c0.21,0.26,0.53,0.49,0.6,0.79c0.18,0.7,0.1,1.97,0.38,2.04c0.81,0.21,1.78,0.06,2.61-0.21
		c0.18-0.06-0.06-1.21,0.03-1.85c0.04-0.28,0.39-0.52,0.6-0.77c0.95,1.12,1.48,2.55-0.04,3.28c-1.12,0.54-2.76,0.42-3.99,0.02
		C411.78,211.55,412.02,209.53,411.98,208.38z"/>
	<path class="st19" d="M415.71,206.41c0.92-1.53,0.11-2.07-1.29-2.18c-0.92-0.07-1.84-0.01-2.77-0.01c0.02-0.32,0.04-0.64,0.06-0.96
		c1.58,0.29,3.2,0.47,4.7,0.99c0.23,0.08-0.08,1.72-0.13,2.64C416.09,206.74,415.9,206.58,415.71,206.41z"/>
	<path class="st19" d="M415.66,207.46c-1.41-0.03-2.82-0.06-4.24-0.08c1.43-0.32,2.86-0.64,4.29-0.96c0.19,0.16,0.38,0.32,0.57,0.48
		C416.07,207.08,415.86,207.27,415.66,207.46z"/>
	<path class="st19" d="M75.67,381.97c-0.57-3.44-0.44-3.58,2.82-3.25c0.76,0.08,1.54,0.01,2.5,0.01c0,1.05,0,2.05,0,3.24
		C79.19,381.97,77.42,381.97,75.67,381.97z"/>
	<path class="st19" d="M79.76,384.38c0.4,0.26,0.83,0.54,1.47,0.96c-0.58,0.44-1.02,0.78-1.51,1.16c0.42,0.23,0.84,0.45,1.26,0.68
		c-0.03,0.14-0.05,0.28-0.08,0.42c-1.73,0-3.46,0-5.19,0c-0.07-0.14-0.13-0.29-0.2-0.43c1.09-0.55,2.18-1.1,3.51-1.78
		c-1.25-0.57-2.34-1.08-3.44-1.58c0.02-0.16,0.04-0.33,0.07-0.49c1.71,0,3.43,0,5.46,0C80.59,383.71,80.21,384.01,79.76,384.38z"/>
	<path class="st19" d="M80.83,377.17c-1.66,0-3.32,0-5.56,0c0.29-1.33,0.45-2.55,0.9-3.65c0.06-0.15,1.53,0.42,2.34,0.38
		c0.77-0.04,1.53-0.44,2.57-0.42c-0.74,0.69-1.49,1.38-2.42,2.25c0.91,0.41,1.62,0.73,2.34,1.05
		C80.94,376.91,80.88,377.04,80.83,377.17z"/>
	<path class="st20" d="M76.04,367.98c0.22,1.53,0.36,2.44,0.61,4.18c0.76-1.19,1.11-1.74,1.53-2.38c0.42,0.53,0.87,1.09,1.71,2.15
		c0.3-1.51,0.49-2.45,0.67-3.4c0.13,0,0.26,0.01,0.38,0.01c0,1.2,0,2.4,0,3.61C75.4,372.96,74.58,372.4,76.04,367.98z"/>
	<path class="st13" d="M76.26,398.84c-0.18-0.27-0.35-0.55-0.53-0.82c1.77-0.03,3.54-0.06,5.31-0.09c-0.18,0.32-0.35,0.64-0.53,0.96
		c-0.2,0.28-0.5,0.53-0.59,0.84c-0.18,0.64-0.11,1.8-0.37,1.87c-0.82,0.22-1.79,0.16-2.62-0.09c-0.2-0.06-0.03-1.23-0.14-1.88
		C76.75,399.35,76.45,399.1,76.26,398.84z"/>
	<path class="st20" d="M81.04,397.93c-1.77,0.03-3.54,0.06-5.31,0.09c0.79-0.81,1.59-1.61,2.84-2.88c-1.54-0.3-2.26-0.44-2.98-0.58
		c0.01-0.17,0.01-0.33,0.02-0.5c1.75,0,3.51,0,5.52,0c-0.96,0.71-1.66,1.22-2.37,1.74C79.53,396.51,80.29,397.22,81.04,397.93z"/>
	<path class="st20" d="M79.71,358.53c0-1,0-1.99,0-3.34c-1.67,1.14-2.81,1.92-4.19,2.86c-0.07-0.94-0.14-1.83-0.21-2.75
		c1-0.13,1.86-0.39,2.69-0.32c0.99,0.08,2.43,0.15,2.8,0.76c0.41,0.67-0.16,1.96-0.3,2.98C80.24,358.66,79.97,358.6,79.71,358.53z"
		/>
	<path class="st19" d="M74.74,390.56c2.51-0.96,4.23-1.62,5.95-2.28c-1.07,1.56-1.92,2.97,0.07,4.62
		C79,392.22,77.25,391.54,74.74,390.56z"/>
	<path class="st20" d="M78.21,364.28c-1.27-1.23-2.12-2.04-2.96-2.85c1.03-0.75,1.97-1.91,3.11-2.15c1.4-0.3,3.04,0.45,2.68,2.24
		C80.86,362.43,79.47,363.11,78.21,364.28z M78.37,359.73c-0.79,0.65-1.39,1.13-1.98,1.62c0.6,0.36,1.21,1.03,1.79,1
		c0.68-0.03,1.34-0.66,2.01-1.03C79.67,360.86,79.15,360.4,78.37,359.73z"/>
	<path class="st20" d="M76.26,398.84c0.19,0.26,0.49,0.51,0.53,0.79c0.1,0.64-0.07,1.82,0.14,1.88c0.83,0.24,1.8,0.31,2.62,0.09
		c0.27-0.07,0.2-1.23,0.37-1.87c0.09-0.31,0.38-0.56,0.59-0.84c-0.07,1.16,0.15,3.18-0.25,3.31c-1.24,0.4-2.93,0.52-4.04-0.05
		C74.83,401.42,75.13,399.95,76.26,398.84z"/>
	<path class="st13" d="M99.39,544.02c0.78,0.71,1.31,1.19,1.84,1.67c-0.67,0.42-1.33,1.12-2.02,1.17c-0.56,0.04-1.16-0.73-1.75-1.13
		C98.03,545.22,98.61,544.71,99.39,544.02z"/>
	<path class="st17" d="M271.88,174.98c0.82,0.64,1.37,1.08,1.92,1.52c-0.66,0.39-1.31,1.04-2,1.08c-0.59,0.04-1.22-0.62-1.83-0.97
		C270.56,176.1,271.14,175.61,271.88,174.98z"/>
	<path class="st5" d="M251.14,383.37c0.75,0.9,1.24,1.49,1.73,2.07c-0.65,0.44-1.32,1.23-1.95,1.21c-0.59-0.02-1.16-0.9-1.74-1.4
		C249.72,384.72,250.28,384.19,251.14,383.37z"/>
	<path class="st13" d="M322.46,527.91c1.24,0.06,2.48,0.11,4.13,0.18C324.71,530.59,323.9,530.61,322.46,527.91z"/>
	<path class="st13" d="M550.09,243.26c-1.11,0-2.22,0-3.32,0c-0.16-0.21-0.32-0.41-0.49-0.62c0.61-0.54,1.24-1.55,1.82-1.52
		c0.87,0.04,1.71,0.81,2.56,1.28C550.47,242.68,550.28,242.97,550.09,243.26z"/>
	<path class="st17" d="M546.66,247.51c0.24-1.31-0.63-3.28,2.41-3.25c-0.67,1.32-1.22,2.39-1.76,3.47
		C547.09,247.65,546.88,247.58,546.66,247.51z"/>
	<path class="st13" d="M83.12,165.37c-0.84-0.73-1.43-1.24-2.01-1.74c0.69-0.4,1.37-1.08,2.08-1.12c0.59-0.03,1.22,0.69,1.84,1.07
		C84.48,164.1,83.92,164.62,83.12,165.37z"/>
	<path class="st17" d="M78.37,359.73c0.78,0.68,1.3,1.13,1.83,1.59c-0.67,0.37-1.33,1-2.01,1.03c-0.58,0.03-1.19-0.64-1.79-1
		C76.98,360.86,77.58,360.37,78.37,359.73z"/>
</g>
</svg>
